<?xml version="1.0" encoding="utf-8"?>
<!-- Generator: Adobe Illustrator 27.3.1, SVG Export Plug-In . SVG Version: 6.00 Build 0)  -->
<svg version="1.1" id="Layer_2_00000160894217455783498110000007241275602178007183_"
	 xmlns="http://www.w3.org/2000/svg" xmlns:xlink="http://www.w3.org/1999/xlink" x="0px" y="0px" viewBox="0 0 107.9 123.6"
	 style="enable-background:new 0 0 107.9 123.6;" xml:space="preserve">
<style type="text/css">
	.st0{fill:#823A56;}
	.st1{fill:#A65B79;}
	.st2{fill:none;stroke:#FFFFFF;stroke-width:14;stroke-miterlimit:10;}
</style>
<g id="Layer_1-2">
	<path class="st0" d="M0.7,93.1c0.5,0.8,1.2,1.5,1.9,1.9l48.2,27.9c0.8,0.5,1.9,0.7,3.1,0.7s2.3-0.3,3.1-0.7L105,95
		c1.7-1,2.9-3.5,2.9-5.4V33.9c0-0.9-0.1-1.9-0.6-2.8C107.3,31.1,0.7,93.1,0.7,93.1z"/>
	<path class="st1" d="M105.4,28.5L57.1,0.7C56.3,0.2,55.2,0,54,0s-2.3,0.3-3.1,0.7l-48,27.9C1.2,29.6,0,32.1,0,34v55.7
		c0,1.1,0.2,2.4,1,3.5l106.8-62C107.2,30,106.3,29.1,105.4,28.5z"/>
	<path class="st2" d="M83,86.5c-13.9,15.1-37.4,16-52.5,2.1c-15.1-14-16-37.5-2-52.6l0.1-0.1c13.9-15,37.4-16,52.5-2"/>
</g>
</svg>
