<?xml version="1.0" encoding="UTF-8" standalone="no"?><!DOCTYPE svg PUBLIC "-//W3C//DTD SVG 1.1//EN" "http://www.w3.org/Graphics/SVG/1.1/DTD/svg11.dtd"><svg width="100%" height="100%" viewBox="0 0 450 515" version="1.1" xmlns="http://www.w3.org/2000/svg" xmlns:xlink="http://www.w3.org/1999/xlink" xml:space="preserve" xmlns:serif="http://www.serif.com/" style="fill-rule:evenodd;clip-rule:evenodd;stroke-miterlimit:10;"><g><path d="M217.55,43.817c4.595,-2.675 10.265,-2.708 14.89,-0.087c30.031,17.014 141.792,80.334 172.085,97.497c4.704,2.665 7.602,7.662 7.58,13.068c-0.144,35.427 -0.686,167.954 -0.829,202.992c-0.021,5.293 -2.84,10.18 -7.411,12.848c-29.873,17.443 -141.706,82.74 -171.808,100.316c-4.638,2.708 -10.373,2.72 -15.022,0.031c-30.196,-17.465 -142.447,-82.387 -172.575,-99.813c-4.63,-2.677 -7.476,-7.624 -7.465,-12.972c0.074,-34.955 0.35,-165.632 0.423,-200.459c0.011,-5.31 2.839,-10.216 7.429,-12.888c30.048,-17.491 142.637,-83.032 172.703,-100.533Z" style="fill:url(#_Linear1);"/><path d="M328.807,336.37c-44.974,47.319 -121.009,50.14 -169.866,6.581c-48.856,-43.873 -51.768,-117.516 -6.471,-164.836l0.324,-0.313c44.974,-47.006 121.009,-50.14 169.866,-6.268" style="fill:none;fill-rule:nonzero;stroke:#fff;stroke-width:55.3px;"/></g><defs><linearGradient id="_Linear1" x1="0" y1="0" x2="1" y2="0" gradientUnits="userSpaceOnUse" gradientTransform="matrix(373.344,215.917,-247.334,427.668,40.2099,145.026)"><stop offset="0" style="stop-color:#659ad2;stop-opacity:1"/><stop offset="1" style="stop-color:#004482;stop-opacity:1"/></linearGradient></defs></svg>