<?xml version="1.0" encoding="utf-8"?>
<!-- Generator: Adobe Illustrator 27.7.0, SVG Export Plug-In . SVG Version: 6.00 Build 0)  -->
<svg version="1.1" id="Layer_1" xmlns:serif="http://www.serif.com/"
	 xmlns="http://www.w3.org/2000/svg" xmlns:xlink="http://www.w3.org/1999/xlink" x="0px" y="0px" viewBox="0 0 512 512"
	 style="enable-background:new 0 0 512 512;" xml:space="preserve">
<style type="text/css">
	.st0{fill-rule:evenodd;clip-rule:evenodd;fill:url(#SVGID_1_);}
	.st1{fill:none;stroke:#FFFFFF;stroke-width:54.9744;stroke-miterlimit:2.3858;}
	.st2{fill:#FFFFFF;}
	.st3{fill-rule:evenodd;clip-rule:evenodd;fill:#FFFFFF;}
</style>
<g>
	
		<linearGradient id="SVGID_1_" gradientUnits="userSpaceOnUse" x1="-6.250482e-02" y1="511.9915" x2="1.0625" y2="511.9915" gradientTransform="matrix(371.1404 214.6425 214.6425 -371.1404 -109824.6719 190168.0312)">
		<stop  offset="0" style="stop-color:#659AD2"/>
		<stop  offset="1" style="stop-color:#004482"/>
	</linearGradient>
	<path class="st0" d="M247.7,17.1c5.1-3,11.5-3,16.7-0.1c33.6,19,158.6,89.8,192.4,109c5.3,3,8.5,8.6,8.5,14.6
		c-0.2,39.6-0.8,187.8-0.9,227c0,5.9-3.2,11.4-8.3,14.4c-33.4,19.5-158.5,92.5-192.1,112.2c-5.2,3-11.6,3-16.8,0
		c-33.8-19.5-159.3-92.1-193-111.6c-5.2-3-8.4-8.5-8.3-14.5c0.1-39.1,0.4-185.2,0.5-224.2c0-5.9,3.2-11.4,8.3-14.4
		C88.2,109.9,214.1,36.6,247.7,17.1L247.7,17.1z"/>
	<path class="st1" d="M370.3,342.8c-49.5,52.1-133.2,55.2-187,7.2c-53.8-48.3-57-129.4-7.1-181.5l0.4-0.3
		c49.5-51.7,133.2-55.2,187-6.9"/>
	<g>
		<path class="st2" d="M298.5,297.3v-31h-31.2v-21.4h31.2v-31h20.8v31h31.3v21.4h-31.3v31H298.5L298.5,297.3z"/>
		<path class="st3" d="M297.1,297.3v-29.6h-29.8c-0.8,0-1.4-0.6-1.4-1.4v-21.4c0-0.8,0.6-1.4,1.4-1.4h29.8v-29.6
			c0-0.8,0.6-1.4,1.4-1.4h20.8c0.8,0,1.4,0.6,1.4,1.4v29.6h29.9c0.8,0,1.4,0.6,1.4,1.4v21.4c0,0.8-0.6,1.4-1.4,1.4h-29.9v29.6
			c0,0.8-0.6,1.4-1.4,1.4h-20.8C297.7,298.7,297.1,298.1,297.1,297.3L297.1,297.3z M298.5,297.3h20.8v-31h31.3v-21.4h-31.3v-31
			h-20.8v31h-31.2v21.4h31.2L298.5,297.3L298.5,297.3z"/>
		<path class="st2" d="M395.8,297.3v-31h-31.2v-21.4h31.2v-31h20.8v31h31.3v21.4h-31.3v31H395.8z"/>
		<path class="st3" d="M394.4,297.3v-29.6h-29.8c-0.8,0-1.4-0.6-1.4-1.4v-21.4c0-0.8,0.6-1.4,1.4-1.4h29.8v-29.6
			c0-0.8,0.6-1.4,1.4-1.4h20.8c0.8,0,1.4,0.6,1.4,1.4v29.6h29.9c0.8,0,1.4,0.6,1.4,1.4v21.4c0,0.8-0.6,1.4-1.4,1.4H418v29.6
			c0,0.8-0.6,1.4-1.4,1.4h-20.8C395,298.7,394.4,298.1,394.4,297.3z M395.8,297.3h20.8v-31h31.3v-21.4h-31.3v-31h-20.8v31h-31.2
			v21.4h31.2V297.3z"/>
	</g>
</g>
</svg>
