<?xml version="1.0" encoding="UTF-8" standalone="no"?><!DOCTYPE svg PUBLIC "-//W3C//DTD SVG 1.1//EN" "http://www.w3.org/Graphics/SVG/1.1/DTD/svg11.dtd"><svg width="100%" height="100%" viewBox="0 0 1875 2146" version="1.1" xmlns="http://www.w3.org/2000/svg" xmlns:xlink="http://www.w3.org/1999/xlink" xml:space="preserve" xmlns:serif="http://www.serif.com/" style="fill-rule:evenodd;clip-rule:evenodd;stroke-miterlimit:10;"><g><path d="M906.458,182.571c19.146,-11.146 42.771,-11.283 62.042,-0.363c125.129,70.892 590.8,334.725 717.021,406.238c19.6,11.104 31.675,31.925 31.583,54.45c-0.6,147.612 -2.858,699.808 -3.454,845.8c-0.088,22.054 -11.833,42.417 -30.879,53.533c-124.471,72.679 -590.442,344.75 -715.867,417.984c-19.325,11.283 -43.221,11.333 -62.592,0.129c-125.816,-72.771 -593.529,-343.279 -719.062,-415.888c-19.292,-11.154 -31.15,-31.766 -31.104,-54.05c0.308,-145.646 1.458,-690.133 1.762,-835.246c0.046,-22.125 11.829,-42.566 30.954,-53.7c125.2,-72.879 594.321,-345.966 719.596,-418.887Z" style="fill:url(#_Linear1);"/><path d="M1370.03,1401.54c-187.391,197.162 -504.204,208.916 -707.775,27.421c-203.566,-182.805 -215.7,-489.65 -26.962,-686.817l1.35,-1.304c187.391,-195.859 504.204,-208.917 707.775,-26.117" style="fill:none;fill-rule:nonzero;stroke:#fff;stroke-width:230.42px;"/><g><path d="M1256.84,1193.81l0,-90.99l-91.706,0l-0,-62.809l91.706,0l0,-90.99l61.138,0l-0,90.99l91.945,0l0,62.809l-91.945,0l-0,90.99l-61.138,0Z" style="fill:#fff;fill-rule:nonzero;"/><path d="M1252.67,1193.81c-0,0 -0,-86.823 -0,-86.823l-87.54,0c-2.301,0 -4.167,-1.865 -4.167,-4.167l0,-62.809c0,-2.301 1.866,-4.167 4.167,-4.167l87.54,0l-0,-86.823c-0,-2.301 1.865,-4.167 4.166,-4.167l61.138,0c2.301,0 4.167,1.866 4.167,4.167l-0,86.823l87.778,0c2.301,0 4.167,1.866 4.167,4.167l-0,62.809c-0,2.302 -1.866,4.167 -4.167,4.167l-87.778,0l-0,86.823c-0,2.302 -1.866,4.167 -4.167,4.167l-61.138,0c-2.301,0 -4.166,-1.865 -4.166,-4.167Zm4.166,0l61.138,0l-0,-90.99l91.945,0l0,-62.809l-91.945,0l-0,-90.99l-61.138,0l0,90.99l-91.706,0l-0,62.809l91.706,0l0,90.99Z" style="fill:#fff;"/><path d="M1542.47,1193.81l-0,-90.99l-91.707,0l0,-62.809l91.707,0l-0,-90.99l61.137,0l0,90.99l91.946,0l-0,62.809l-91.946,0l0,90.99l-61.137,0Z" style="fill:#fff;fill-rule:nonzero;"/><path d="M1538.3,1193.81c0,0 0,-86.823 0,-86.823l-87.54,0c-2.301,0 -4.166,-1.865 -4.166,-4.167l-0,-62.809c-0,-2.301 1.865,-4.167 4.166,-4.167l87.54,0l0,-86.823c0,-2.301 1.865,-4.167 4.167,-4.167l61.137,0c2.301,0 4.167,1.866 4.167,4.167l-0,86.823l87.779,0c2.301,0 4.166,1.866 4.166,4.167l0,62.809c0,2.302 -1.865,4.167 -4.166,4.167l-87.779,0l-0,86.823c-0,2.302 -1.866,4.167 -4.167,4.167l-61.137,0c-2.302,0 -4.167,-1.865 -4.167,-4.167Zm4.167,0l61.137,0l0,-90.99l91.946,0l-0,-62.809l-91.946,0l0,-90.99l-61.137,0l-0,90.99l-91.707,0l0,62.809l91.707,0l-0,90.99Z" style="fill:#fff;"/></g></g><defs><linearGradient id="_Linear1" x1="0" y1="0" x2="1" y2="0" gradientUnits="userSpaceOnUse" gradientTransform="matrix(1555.6,899.654,-899.654,1555.6,167.541,604.275)"><stop offset="0" style="stop-color:#659ad2;stop-opacity:1"/><stop offset="1" style="stop-color:#004482;stop-opacity:1"/></linearGradient></defs></svg>