<?xml version="1.0" encoding="utf-8"?>
<!-- Generator: Adobe Illustrator 27.3.1, SVG Export Plug-In . SVG Version: 6.00 Build 0)  -->
<svg version="1.1" id="Layer_2_00000083798332696367286100000006803172613653178001_"
	 xmlns="http://www.w3.org/2000/svg" xmlns:xlink="http://www.w3.org/1999/xlink" x="0px" y="0px" viewBox="0 0 121.4 117.7"
	 style="enable-background:new 0 0 121.4 117.7;" xml:space="preserve">
<style type="text/css">
	.st0{fill:#1572B6;}
	.st1{fill:#33A9DC;}
	.st2{fill:#FFFFFF;}
	.st3{fill:#EBEBEB;}
</style>
<g>
	<path class="st0" d="M23.4,100.2l-8.3-93h91.1l-8.3,93l-37.3,10.3C60.6,110.5,23.4,100.2,23.4,100.2z"/>
	<path class="st1" d="M60.7,102.6l30.1-8.4l7.1-79.4H60.7C60.7,14.8,60.7,102.6,60.7,102.6z"/>
	<path class="st2" d="M60.7,48.5h15.1l1-11.7H60.7V25.4h28.6L89,28.5l-2.8,31.4H60.7C60.7,59.9,60.7,48.5,60.7,48.5z"/>
	<path class="st3" d="M60.8,78.1L60.8,78.1L48,74.7l-0.8-9.1H35.8l1.6,17.9L60.7,90l0.1,0V78.1z"/>
	<path class="st2" d="M74.8,59.4l-1.4,15.3l-12.7,3.4V90l23.4-6.5l0.2-1.9l2-22.2H74.8z"/>
	<path class="st3" d="M60.7,25.4v11.4H33.2L33,34.2l-0.5-5.8l-0.3-3.1C32.2,25.4,60.7,25.4,60.7,25.4z M60.7,48.5v11.4H48.2
		l-0.2-2.6l-0.5-5.8l-0.3-3.1H60.7z"/>
</g>
</svg>
