<?xml version="1.0" encoding="UTF-8" standalone="no"?>
<svg
   height="32"
   viewBox="0 96 960 960"
   width="32"
   version="1.1"
   id="svg1"
   sodipodi:docname="default-folder.svg"
   xml:space="preserve"
   inkscape:version="1.3.2 (091e20e, 2023-11-25, custom)"
   xmlns:inkscape="http://www.inkscape.org/namespaces/inkscape"
   xmlns:sodipodi="http://sodipodi.sourceforge.net/DTD/sodipodi-0.dtd"
   xmlns="http://www.w3.org/2000/svg"
   xmlns:svg="http://www.w3.org/2000/svg"><defs
     id="defs1" /><sodipodi:namedview
     id="namedview1"
     pagecolor="#ffffff"
     bordercolor="#000000"
     borderopacity="0.25"
     inkscape:showpageshadow="2"
     inkscape:pageopacity="0.0"
     inkscape:pagecheckerboard="0"
     inkscape:deskcolor="#d1d1d1"
     inkscape:zoom="8.4742328"
     inkscape:cx="-43.012743"
     inkscape:cy="27.554117"
     inkscape:window-width="1920"
     inkscape:window-height="981"
     inkscape:window-x="-9"
     inkscape:window-y="-9"
     inkscape:window-maximized="1"
     inkscape:current-layer="svg1" /><path
     d="M141 896q-24 0-42-18.5T81 836V316q0-23 18-41.5t42-18.5h255q12.444 0 23.722 5t19.366 13.088L481 316h340q23 0 41.5 18.5T881 376v460q0 23-18.5 41.5T821 896H141Zm0-580v520h680V376H456l-60-60H141Zm0 0v520-520Z"
     style="fill:#F2D488"
     id="path1" /><path
     style="fill:#ff6600;stroke:#000000;stroke-width:0;stroke-linecap:round;stroke-linejoin:round;stroke-miterlimit:0"
     d="M 4.1083956,26.543859 C 3.6002744,26.370623 3.1625197,25.965306 2.9042544,25.428944 L 2.7535854,25.116037 V 16 6.8839635 L 2.9048977,6.5710561 c 0.2648771,-0.5477544 0.7269667,-0.9694579 1.2338592,-1.126021 0.2650202,-0.081856 0.3814279,-0.083888 4.8072178,-0.083888 4.0496083,0 4.5599033,0.0072 4.7622283,0.067234 0.468,0.1388552 0.61566,0.2491957 1.480399,1.1062378 l 0.836582,0.8291354 h 5.803769 c 5.578921,0 5.813608,0.00306 6.057734,0.079043 0.670297,0.2086199 1.275634,0.8661534 1.417472,1.539699 0.06639,0.3152426 0.06601,15.7249117 -3.89e-4,16.0376137 -0.06852,0.32268 -0.252419,0.658966 -0.516119,0.943792 -0.282043,0.30464 -0.56372,0.490945 -0.900964,0.595907 -0.246729,0.07679 -0.585193,0.07901 -11.879974,0.07797 L 4.380704,26.636699 Z M 27.389831,17.001304 V 9.3246415 H 21.30867 15.22751 L 14.226858,8.3233377 13.226206,7.3220339 H 8.9599086 4.6936115 V 16 24.677966 h 11.3481095 11.34811 z"
     id="path2"
     transform="matrix(30,0,0,30,0,96)" /><style
     type="text/css"
     id="style1">
	.st0{fill:#D8DEE9;}
	.st1{fill:#F03C2E;}
</style><g
     id="g2"
     transform="matrix(0.62502342,0,0,0.62033626,596.92992,661.54262)">
	<path
   class="st0"
   d="m 168.7,90.3 54.2,54.2 c -1.9,4.5 -2.8,9.3 -2.8,14.1 0,14.8 9,28.2 22.7,33.9 v 131.2 c -4.5,1.9 -8.6,4.6 -12,8 -6.9,6.9 -10.7,16.2 -10.7,25.9 0,9.7 3.9,19 10.7,25.9 6.9,6.9 16.2,10.7 25.9,10.7 9.7,0 19,-3.9 25.9,-10.7 6.9,-6.9 10.7,-16.2 10.7,-25.9 0,-13.9 -7.9,-26.7 -20.4,-32.8 v -130 l 49.4,49.4 c -5.6,13.6 -2.5,29.4 7.9,39.8 14.2,14.2 37.6,14.2 51.8,0 6.9,-6.9 10.7,-16.2 10.7,-25.9 0,-9.7 -3.9,-19 -10.7,-25.9 -9.9,-9.9 -24.6,-13.3 -37.8,-8.7 l -53,-53 c 4.6,-13.2 1.2,-27.9 -8.7,-37.8 -9.8,-9.8 -24.4,-13.2 -37.6,-8.8 L 190,69"
   id="path1-2" />
	<path
   class="st1"
   d="m 485.5,234.3 v 0 L 423,171.9 303.1,52 276.8,25.7 c -5.8,-5.8 -13.6,-9 -21.8,-9 -8.2,0 -16,3.2 -21.8,9 L 207,52 l -17,17 54.9,54.9 c 13.2,-4.5 27.8,-1.1 37.6,8.8 9.9,9.9 13.3,24.6 8.7,37.8 l 53,53 c 13.2,-4.6 28,-1.2 37.8,8.7 6.9,6.9 10.7,16.2 10.7,25.9 0,9.7 -3.9,19 -10.7,25.9 -14.2,14.2 -37.6,14.2 -51.8,0 -10.4,-10.4 -13.6,-26.2 -7.9,-39.8 l -49.4,-49.4 v 130 c 12.5,6.2 20.4,18.9 20.4,32.8 0,9.7 -3.9,19 -10.7,25.9 -6.9,6.9 -16.2,10.7 -25.9,10.7 -9.7,0 -19,-3.9 -25.9,-10.7 -6.9,-6.9 -10.7,-16.2 -10.7,-25.9 0,-9.7 3.9,-19 10.7,-25.9 3.4,-3.4 7.5,-6.2 12,-8 V 192.5 c -13.7,-5.6 -22.7,-19.1 -22.7,-33.9 0,-4.8 1,-9.7 2.8,-14.1 L 168.7,90.3 130,129 25.7,233.3 c -11.9,11.9 -11.9,31.6 0,43.5 l 104.3,104.4 85.8,85.8 18.5,18.5 c 11.9,11.9 31.6,11.9 43.5,0 L 296.3,467 423,340.3 485.5,277.8 c 11.9,-11.9 11.9,-31.5 0,-43.5 z"
   id="path2-7" />
</g><path
     style="fill:#f03c2e;fill-opacity:1;stroke:#000000;stroke-width:0;stroke-linecap:round;stroke-linejoin:round;stroke-miterlimit:0"
     d="M 3.9615506,26.403387 C 3.7390062,26.289908 3.3938422,25.99302 3.1945196,25.743635 L 2.8321148,25.290208 2.8033634,16.126245 2.7746119,6.9622821 3.0411699,6.4937525 C 3.4556584,5.7652049 3.9160385,5.5213307 5.0561725,5.4263581 6.7718874,5.2834398 13.645245,5.4108101 13.983567,5.5917917 c 0.162256,0.086798 0.666727,0.5205474 1.121045,0.9638888 l 0.826034,0.8060751 5.959241,0.036273 5.959242,0.036273 0.436569,0.271459 c 0.240114,0.1493024 0.558727,0.4679153 0.708029,0.7080287 l 0.271459,0.4365697 0.03504,7.021284 0.03504,7.021285 -0.949574,-0.94127 -0.949574,-0.94127 V 15.136882 9.2633754 H 21.326759 15.217406 L 14.219576,8.2603348 13.221746,7.2572941 H 8.9414676 4.6611889 v 8.7323539 8.732354 h 7.9385901 7.93859 l 0.938501,0.944038 0.938502,0.944038 -9.024598,-1.83e-4 C 5.0321418,26.609726 4.3363178,26.594486 3.9615506,26.403387 Z"
     id="path3"
     transform="matrix(30,0,0,30,0,96)" /></svg>
