<?xml version="1.0" encoding="UTF-8" standalone="no"?>
<svg
   height="32"
   viewBox="0 96 960 960"
   width="32"
   version="1.1"
   id="svg1"
   sodipodi:docname="default-folder-open.svg"
   inkscape:version="1.3.2 (091e20e, 2023-11-25, custom)"
   xmlns:inkscape="http://www.inkscape.org/namespaces/inkscape"
   xmlns:sodipodi="http://sodipodi.sourceforge.net/DTD/sodipodi-0.dtd"
   xmlns="http://www.w3.org/2000/svg"
   xmlns:svg="http://www.w3.org/2000/svg">
  <defs
     id="defs1" />
  <sodipodi:namedview
     id="namedview1"
     pagecolor="#ffffff"
     bordercolor="#000000"
     borderopacity="0.25"
     inkscape:showpageshadow="2"
     inkscape:pageopacity="0.0"
     inkscape:pagecheckerboard="0"
     inkscape:deskcolor="#d1d1d1"
     inkscape:zoom="23.96875"
     inkscape:cx="16"
     inkscape:cy="16"
     inkscape:window-width="1920"
     inkscape:window-height="981"
     inkscape:window-x="-9"
     inkscape:window-y="-9"
     inkscape:window-maximized="1"
     inkscape:current-layer="svg1" />
  <path
     d="M140 896q-23 0-41.5-18.5T80 836V316q0-23 18.5-41.5T140 256h256q12.444 0 23.722 5t19.366 13.088L481 316h339q23 0 41.5 18.5T880 376H455l-60-60H140v520l90-355q5-20 21.826-32.5T289 436h573q29 0 48 23t11 52l-88 339q-6 24-22 35t-41 11H140Zm63-60h572l84-340H287l-84 340Zm0 0 84-340-84 340Zm-63-400V316v120Z"
     style="fill:#F2D488"
     id="path1" />
  <g
     id="g2"
     transform="matrix(0.62502342,0,0,0.62033626,679.5153,625.64045)">
	<path
   class="st0"
   d="m 168.7,90.3 54.2,54.2 c -1.9,4.5 -2.8,9.3 -2.8,14.1 0,14.8 9,28.2 22.7,33.9 v 131.2 c -4.5,1.9 -8.6,4.6 -12,8 -6.9,6.9 -10.7,16.2 -10.7,25.9 0,9.7 3.9,19 10.7,25.9 6.9,6.9 16.2,10.7 25.9,10.7 9.7,0 19,-3.9 25.9,-10.7 6.9,-6.9 10.7,-16.2 10.7,-25.9 0,-13.9 -7.9,-26.7 -20.4,-32.8 v -130 l 49.4,49.4 c -5.6,13.6 -2.5,29.4 7.9,39.8 14.2,14.2 37.6,14.2 51.8,0 6.9,-6.9 10.7,-16.2 10.7,-25.9 0,-9.7 -3.9,-19 -10.7,-25.9 -9.9,-9.9 -24.6,-13.3 -37.8,-8.7 l -53,-53 c 4.6,-13.2 1.2,-27.9 -8.7,-37.8 -9.8,-9.8 -24.4,-13.2 -37.6,-8.8 L 190,69"
   id="path1-2"
   style="fill:#d8dee9" />

	<path
   class="st1"
   d="m 485.5,234.3 v 0 L 423,171.9 303.1,52 276.8,25.7 c -5.8,-5.8 -13.6,-9 -21.8,-9 -8.2,0 -16,3.2 -21.8,9 L 207,52 l -17,17 54.9,54.9 c 13.2,-4.5 27.8,-1.1 37.6,8.8 9.9,9.9 13.3,24.6 8.7,37.8 l 53,53 c 13.2,-4.6 28,-1.2 37.8,8.7 6.9,6.9 10.7,16.2 10.7,25.9 0,9.7 -3.9,19 -10.7,25.9 -14.2,14.2 -37.6,14.2 -51.8,0 -10.4,-10.4 -13.6,-26.2 -7.9,-39.8 l -49.4,-49.4 v 130 c 12.5,6.2 20.4,18.9 20.4,32.8 0,9.7 -3.9,19 -10.7,25.9 -6.9,6.9 -16.2,10.7 -25.9,10.7 -9.7,0 -19,-3.9 -25.9,-10.7 -6.9,-6.9 -10.7,-16.2 -10.7,-25.9 0,-9.7 3.9,-19 10.7,-25.9 3.4,-3.4 7.5,-6.2 12,-8 V 192.5 c -13.7,-5.6 -22.7,-19.1 -22.7,-33.9 0,-4.8 1,-9.7 2.8,-14.1 L 168.7,90.3 130,129 25.7,233.3 c -11.9,11.9 -11.9,31.6 0,43.5 l 104.3,104.4 85.8,85.8 18.5,18.5 c 11.9,11.9 31.6,11.9 43.5,0 L 296.3,467 423,340.3 485.5,277.8 c 11.9,-11.9 11.9,-31.5 0,-43.5 z"
   id="path2-7"
   style="fill:#f03c2e" />

</g>
  <path
     style="fill:#f03c2e;fill-opacity:1;stroke:#000000;stroke-width:0;stroke-linecap:round;stroke-linejoin:round;stroke-miterlimit:0"
     d="m 2.669753,16 c 0,-4.784355 0.00487,-6.7415906 0.010819,-4.349413 0.00595,2.392177 0.00595,6.306649 0,8.698826 C 2.6746214,22.741591 2.669753,20.784355 2.669753,16 Z"
     id="path2"
     transform="matrix(30,0,0,30,0,96)" />
  <path
     style="fill:#f03c2e;fill-opacity:1;stroke:#000000;stroke-width:0;stroke-linecap:round;stroke-linejoin:round;stroke-miterlimit:0"
     d="M 4.1413069,26.558077 C 3.8230866,26.45603 3.5442243,26.271894 3.2674237,25.981041 2.9981721,25.69812 2.8477441,25.45011 2.757151,25.139755 2.697682,24.936025 2.691004,24.012897 2.691004,15.996145 c 0,-8.6343995 0.00251,-8.9250517 0.079043,-9.1709682 C 2.8135204,6.6854958 2.9077104,6.4798589 2.979358,6.368206 3.1408693,6.1165123 3.5263753,5.745467 3.7757497,5.6016876 4.2102439,5.3511753 3.9957711,5.3611473 8.9491525,5.3611473 c 4.0466855,0 4.5567295,0.00721 4.7590505,0.067234 0.467954,0.1388417 0.615687,0.249222 1.479826,1.1056687 l 0.836008,0.8285664 5.883249,0.010999 5.883249,0.010999 0.31073,0.1537589 c 0.33111,0.1638439 0.692378,0.4894943 0.917101,0.8266844 0.137187,0.2058457 0.29063,0.6487104 0.29063,0.8388145 V 9.3246415 H 22.247393 15.185789 L 14.185137,8.3233377 13.184485,7.3220339 H 8.9181876 4.6518905 v 8.6849201 c 0,4.776705 0.00867,8.676246 0.019275,8.665644 0.010601,-0.0106 0.6873126,-2.656233 1.5038031,-5.879183 0.8164905,-3.222949 1.5222052,-5.975532 1.5682552,-6.11685 0.1765019,-0.541651 0.704771,-1.046998 1.2803241,-1.224768 0.2643059,-0.08164 0.4105371,-0.08283 10.1687851,-0.08283 9.599773,0 9.908341,0.0024 10.154589,0.07904 0.842507,0.262217 1.50382,1.195903 1.404398,1.982819 -0.01473,0.116563 -0.340581,1.426019 -0.72412,2.909903 L 29.329857,19.0387 28.843642,18.562863 C 28.576224,18.301152 28.303995,18.06658 28.238688,18.04159 28.04987,17.96934 27.77838,17.98665 27.618204,18.08116 c -0.07971,0.04703 -0.144932,0.07305 -0.144932,0.05783 0,-0.01523 0.262843,-1.091083 0.584094,-2.390789 0.321252,-1.299706 0.584094,-2.375531 0.584094,-2.390724 0,-0.01519 -4.29771,-0.02762 -9.550467,-0.02762 H 9.5405251 L 9.4283536,13.799218 C 9.2647547,14.483767 6.782322,24.518704 6.7552412,24.604954 c -0.021782,0.06937 0.4185455,0.07312 8.8351678,0.07522 l 8.858092,0.0022 0.958131,0.934493 c 0.526972,0.513971 0.943139,0.949484 0.924817,0.967808 -0.01832,0.01832 -4.964735,0.03711 -10.992029,0.04174 -10.5395248,0.0081 -10.9678733,0.0055 -11.1981131,-0.06834 z"
     id="path3"
     transform="matrix(30,0,0,30,0,96)" />
</svg>
