<?xml version="1.0" encoding="utf-8"?>
<!-- Generator: Adobe Illustrator 27.3.1, SVG Export Plug-In . SVG Version: 6.00 Build 0)  -->
<svg version="1.1" id="Layer_1" xmlns="http://www.w3.org/2000/svg" xmlns:xlink="http://www.w3.org/1999/xlink" x="0px" y="0px"
	 viewBox="0 0 48 48" style="enable-background:new 0 0 48 48;" xml:space="preserve">
<style type="text/css">
	.st0{fill:#D2D2D2;}
</style>
<path class="st0" d="M6,41.9v-0.7C6,40.5,6.5,40,7.1,40h21.7c0.6,0,1.1,0.5,1.1,1.1v0.7c0,0.6-0.5,1.1-1.1,1.1H7.1
	C6.5,43,6,42.5,6,41.9z M16.3,31.6l-9.5-9.5c-0.4-0.4-0.4-1.2,0-1.6l1.9-2c0.4-0.5,1.2-0.5,1.6,0l9.6,9.5c0.4,0.4,0.5,1.2,0,1.6
	l-2,2C17.5,32,16.7,32,16.3,31.6z M29,18.9l-9.5-9.6c-0.4-0.5-0.4-1.2,0-1.6l2-1.9c0.4-0.4,1.2-0.4,1.6,0l9.5,9.5
	c0.4,0.4,0.4,1.2,0,1.6l-2,2C30.2,19.3,29.4,19.3,29,18.9z M39.1,40.2L13.9,15c-0.4-0.4-0.4-1.2,0-1.6l0.5-0.5
	c0.4-0.4,1.2-0.4,1.6,0l25.2,25.2c0.4,0.4,0.4,1.2,0,1.6l-0.5,0.5C40.3,40.6,39.5,40.6,39.1,40.2z"/>
</svg>
