<?xml version="1.0" encoding="UTF-8" standalone="no"?><!DOCTYPE svg PUBLIC "-//W3C//DTD SVG 1.1//EN" "http://www.w3.org/Graphics/SVG/1.1/DTD/svg11.dtd"><svg width="100%" height="100%" viewBox="0 0 384 384" version="1.1" xmlns="http://www.w3.org/2000/svg" xmlns:xlink="http://www.w3.org/1999/xlink" xml:space="preserve" xmlns:serif="http://www.serif.com/" style="fill-rule:evenodd;clip-rule:evenodd;stroke-linejoin:round;stroke-miterlimit:2;"><g><path d="M364.093,175.731l-156.464,-156.453c-4.327,-4.33 -10.204,-6.765 -16.325,-6.765c-6.121,-0 -11.998,2.435 -16.325,6.765l-32.478,32.494l41.206,41.206c9.867,-3.351 20.826,-0.798 28.196,6.568c7.413,7.421 9.948,18.47 6.509,28.379l39.729,39.717c9.912,-3.443 20.967,-0.903 28.383,6.521c5.148,5.147 8.043,12.136 8.043,19.415c0,7.28 -2.895,14.269 -8.043,19.416c-10.663,10.652 -28.199,10.652 -38.862,0c-7.816,-7.828 -10.173,-19.646 -5.96,-29.873l-37.049,-37.038l0,97.486c9.352,4.62 15.296,14.186 15.296,24.616c-0,7.279 -2.895,14.267 -8.042,19.414c-5.147,5.148 -12.136,8.044 -19.416,8.044c-7.279,-0 -14.268,-2.896 -19.415,-8.044c-5.149,-5.147 -8.045,-12.137 -8.045,-19.417c-0,-7.281 2.896,-14.271 8.045,-19.418c2.569,-2.574 5.623,-4.614 8.985,-6.002l0,-98.383c-10.278,-4.233 -17.02,-14.302 -17.02,-25.418c-0,-3.637 0.721,-7.238 2.123,-10.594l-40.63,-40.637l-107.294,107.267c-8.942,8.96 -8.942,23.686 0,32.646l156.472,156.473c8.96,8.94 23.683,8.94 32.642,-0l155.739,-155.739c8.943,-8.96 8.943,-23.686 0,-32.646" style="fill:#f03c2e;fill-rule:nonzero;"/></g></svg>