<?xml version="1.0" encoding="utf-8"?>
<!-- Generator: Adobe Illustrator 27.7.0, SVG Export Plug-In . SVG Version: 6.00 Build 0)  -->
<svg version="1.1" id="Layer_1" xmlns:serif="http://www.serif.com/"
	 xmlns="http://www.w3.org/2000/svg" xmlns:xlink="http://www.w3.org/1999/xlink" x="0px" y="0px" viewBox="0 0 512 512"
	 style="enable-background:new 0 0 512 512;" xml:space="preserve">
<style type="text/css">
	.st0{fill:#D8DEE9;}
	.st1{fill:#F03C2E;}
</style>
<g>
	<path class="st0" d="M168.7,90.3l54.2,54.2c-1.9,4.5-2.8,9.3-2.8,14.1c0,14.8,9,28.2,22.7,33.9v131.2c-4.5,1.9-8.6,4.6-12,8
		c-6.9,6.9-10.7,16.2-10.7,25.9c0,9.7,3.9,19,10.7,25.9c6.9,6.9,16.2,10.7,25.9,10.7c9.7,0,19-3.9,25.9-10.7
		c6.9-6.9,10.7-16.2,10.7-25.9c0-13.9-7.9-26.7-20.4-32.8v-130l49.4,49.4c-5.6,13.6-2.5,29.4,7.9,39.8c14.2,14.2,37.6,14.2,51.8,0
		c6.9-6.9,10.7-16.2,10.7-25.9c0-9.7-3.9-19-10.7-25.9c-9.9-9.9-24.6-13.3-37.8-8.7l-53-53c4.6-13.2,1.2-27.9-8.7-37.8
		c-9.8-9.8-24.4-13.2-37.6-8.8L190,69"/>
	<path class="st1" d="M485.5,234.3L485.5,234.3L423,171.9L303.1,52l-26.3-26.3c-5.8-5.8-13.6-9-21.8-9c-8.2,0-16,3.2-21.8,9L207,52
		l-17,17l54.9,54.9c13.2-4.5,27.8-1.1,37.6,8.8c9.9,9.9,13.3,24.6,8.7,37.8l53,53c13.2-4.6,28-1.2,37.8,8.7
		c6.9,6.9,10.7,16.2,10.7,25.9c0,9.7-3.9,19-10.7,25.9c-14.2,14.2-37.6,14.2-51.8,0c-10.4-10.4-13.6-26.2-7.9-39.8l-49.4-49.4v130
		c12.5,6.2,20.4,18.9,20.4,32.8c0,9.7-3.9,19-10.7,25.9c-6.9,6.9-16.2,10.7-25.9,10.7c-9.7,0-19-3.9-25.9-10.7
		c-6.9-6.9-10.7-16.2-10.7-25.9c0-9.7,3.9-19,10.7-25.9c3.4-3.4,7.5-6.2,12-8V192.5c-13.7-5.6-22.7-19.1-22.7-33.9
		c0-4.8,1-9.7,2.8-14.1l-54.2-54.2L130,129L25.7,233.3c-11.9,11.9-11.9,31.6,0,43.5L130,381.2l85.8,85.8l18.5,18.5
		c11.9,11.9,31.6,11.9,43.5,0l18.5-18.5L423,340.3l62.5-62.5C497.4,265.9,497.4,246.3,485.5,234.3z"/>
</g>
</svg>
