<?xml version="1.0" encoding="UTF-8" standalone="no"?><!DOCTYPE svg PUBLIC "-//W3C//DTD SVG 1.1//EN" "http://www.w3.org/Graphics/SVG/1.1/DTD/svg11.dtd"><svg width="100%" height="100%" viewBox="0 0 100 100" version="1.1" xmlns="http://www.w3.org/2000/svg" xmlns:xlink="http://www.w3.org/1999/xlink" xml:space="preserve" xmlns:serif="http://www.serif.com/" style="fill-rule:evenodd;clip-rule:evenodd;stroke-linejoin:round;stroke-miterlimit:2;"><rect id="Artboard1" x="0" y="0" width="100" height="100" style="fill:none;"/><g id="Artboard11" serif:id="Artboard1"><g><path d="M97.786,51.202c0.139,2.168 0.202,3.61 -0.037,5.782c-0.225,2.038 -1.237,4.233 -2.21,5.963c-2.227,3.959 -5.439,7.059 -9.566,8.975c-7.568,3.513 -17.357,1.725 -22.389,-5.165c-0.995,-1.363 -1.752,-2.836 -2.282,-4.439c-0.496,-1.499 -0.871,-3.506 -0.88,-5.09c-0.036,-7.007 3.543,-13.714 9.373,-17.624c2.172,-1.457 3.784,-2.077 6.296,-2.76c7.221,-1.964 15.22,0.935 19.293,7.168c0.44,0.673 0.911,1.339 1.223,2.08c0.421,0.998 1.109,4.022 1.179,5.11Zm-9.344,1.693c-0.035,-0.598 -0.377,-2.258 -0.587,-2.806c-0.156,-0.407 -0.39,-0.772 -0.609,-1.142c-2.03,-3.422 -6.015,-5.014 -9.612,-3.936c-1.251,0.375 -2.055,0.716 -3.137,1.516c-2.904,2.147 -4.688,5.829 -4.669,9.676c0.004,0.87 0.191,1.972 0.438,2.795c0.264,0.88 0.641,1.688 1.137,2.437c2.507,3.783 7.384,4.764 11.154,2.835c2.056,-1.051 3.657,-2.754 4.766,-4.927c0.484,-0.95 0.989,-2.155 1.101,-3.274c0.119,-1.193 0.087,-1.984 0.018,-3.174Z" style="fill:#00add8;"/><path d="M97.786,51.202c0.139,2.168 0.202,3.61 -0.037,5.782c-0.225,2.038 -1.237,4.233 -2.21,5.963c-2.227,3.959 -5.439,7.059 -9.566,8.975c-7.568,3.513 -17.357,1.725 -22.389,-5.165c-0.995,-1.363 -1.752,-2.836 -2.282,-4.439c-0.496,-1.499 -0.871,-3.506 -0.88,-5.09c-0.036,-7.007 3.543,-13.714 9.373,-17.624c2.172,-1.457 3.784,-2.077 6.296,-2.76c7.221,-1.964 15.22,0.935 19.293,7.168c0.44,0.673 0.911,1.339 1.223,2.08c0.421,0.998 1.109,4.022 1.179,5.11Zm-2.079,0.134c-0.061,-0.945 -0.655,-3.569 -1.02,-4.435c-0.264,-0.626 -0.675,-1.18 -1.047,-1.749c-3.588,-5.491 -10.641,-8.028 -17.002,-6.298c-2.265,0.616 -3.724,1.166 -5.683,2.48c-5.254,3.524 -8.483,9.568 -8.449,15.883c0.007,1.384 0.341,3.137 0.774,4.447c0.461,1.396 1.12,2.678 1.987,3.864c4.453,6.098 13.131,7.613 19.829,4.504c3.725,-1.729 6.618,-4.534 8.627,-8.107c0.846,-1.503 1.76,-3.397 1.955,-5.169c0.224,-2.037 0.159,-3.388 0.029,-5.42Zm-5.185,1.438c0.076,1.313 0.106,2.186 -0.025,3.503c-0.137,1.368 -0.726,2.852 -1.318,4.013c-1.317,2.58 -3.232,4.586 -5.673,5.835c-4.68,2.394 -10.728,1.156 -13.84,-3.539c-0.608,-0.919 -1.072,-1.91 -1.396,-2.99c-0.298,-0.996 -0.521,-2.331 -0.526,-3.383c-0.021,-4.522 2.101,-8.838 5.515,-11.361c1.304,-0.965 2.268,-1.384 3.777,-1.836c4.486,-1.345 9.471,0.601 12.002,4.869c0.279,0.47 0.565,0.942 0.763,1.46c0.256,0.669 0.679,2.698 0.721,3.429Zm-2.08,0.121c-0.035,-0.598 -0.377,-2.258 -0.587,-2.806c-0.156,-0.407 -0.39,-0.772 -0.609,-1.142c-2.03,-3.422 -6.015,-5.014 -9.612,-3.936c-1.251,0.375 -2.055,0.716 -3.137,1.516c-2.904,2.147 -4.688,5.829 -4.669,9.676c0.004,0.87 0.191,1.972 0.438,2.795c0.264,0.88 0.641,1.688 1.137,2.437c2.507,3.783 7.384,4.764 11.154,2.835c2.056,-1.051 3.657,-2.754 4.766,-4.927c0.484,-0.95 0.989,-2.155 1.101,-3.274c0.119,-1.193 0.087,-1.984 0.018,-3.174Z" style="fill:#00add8;"/><path d="M61.505,45.906c0.057,0.124 0.057,0.266 0.001,0.39c-0.055,0.123 -0.162,0.217 -0.292,0.256c-1.727,0.522 -7.32,2.208 -8.768,2.645c-0.202,0.06 -0.419,-0.02 -0.533,-0.198c-2.695,-4.167 -8.418,-4.685 -12.351,-1.933c-2.717,1.9 -4.359,4.895 -4.839,8.141c-0.794,5.365 3.597,10.481 9.108,9.867c3.435,-0.383 6.6,-2.733 8.205,-5.753l-10.029,0.065c-0.395,0.003 -0.762,-0.199 -0.972,-0.534c-0.209,-0.334 -0.23,-0.753 -0.055,-1.107l2.493,-5.037c0.192,-0.389 1.021,-0.633 1.021,-0.633l16.597,-0.163c2.849,1.132 1.913,4.69 1.243,6.912c-0.183,0.605 -0.383,1.205 -0.615,1.791c-0.233,0.587 -0.469,1.176 -0.779,1.725c-0.621,1.097 -1.251,2.197 -2.009,3.204c-5.573,7.41 -16.003,10.582 -24.449,6.273c-1.867,-0.952 -3.573,-2.243 -4.957,-3.822c-1.467,-1.672 -2.51,-3.518 -3.208,-5.631c-2.855,-8.639 1.391,-18.196 8.818,-22.978c7.339,-4.725 17.706,-4.181 23.703,2.488c1.091,1.214 1.982,2.558 2.667,4.032Z" style="fill:#00add8;"/><path d="M44.484,52.078c0.007,-0.002 0.01,-0.003 0.01,-0.003l16.597,-0.163c2.849,1.132 1.913,4.69 1.243,6.912c-0.183,0.605 -0.383,1.205 -0.615,1.791c-0.233,0.587 -0.469,1.176 -0.779,1.725c-0.621,1.097 -1.251,2.197 -2.009,3.204c-5.573,7.41 -16.003,10.582 -24.449,6.273c-1.867,-0.952 -3.573,-2.243 -4.957,-3.822c-1.467,-1.672 -2.51,-3.518 -3.208,-5.631c-2.855,-8.639 1.391,-18.196 8.818,-22.978c7.339,-4.725 17.706,-4.181 23.703,2.488c1.091,1.214 1.982,2.558 2.667,4.032c0.057,0.124 0.057,0.266 0.001,0.39c-0.055,0.123 -0.162,0.217 -0.292,0.256c-1.727,0.522 -7.32,2.208 -8.768,2.645c-0.202,0.06 -0.419,-0.02 -0.533,-0.198c-2.695,-4.167 -8.418,-4.685 -12.351,-1.933c-2.717,1.9 -4.359,4.895 -4.839,8.141c-0.794,5.365 3.597,10.481 9.108,9.867c3.435,-0.383 6.6,-2.733 8.205,-5.753l-10.029,0.065c-0.395,0.003 -0.762,-0.199 -0.972,-0.534c-0.209,-0.334 -0.23,-0.753 -0.055,-1.107l2.493,-5.037c0.115,-0.233 0.46,-0.414 0.717,-0.522l0.304,1.972l-0.01,-2.08Zm0.599,2.075l-1.554,3.14l8.494,-0.055c0.733,-0.005 1.415,0.376 1.795,1.004c0.38,0.628 0.402,1.409 0.058,2.057c-1.917,3.606 -5.712,6.388 -9.814,6.845c-6.865,0.766 -12.389,-5.558 -11.4,-12.242c0.564,-3.811 2.516,-7.313 5.706,-9.544c4.545,-3.178 11.001,-2.74 14.563,1.516c1.522,-0.459 3.958,-1.193 5.778,-1.742c-0.419,-0.657 -0.893,-1.278 -1.42,-1.865c-5.318,-5.913 -14.518,-6.319 -21.027,-2.129c-6.657,4.286 -10.526,12.829 -7.967,20.572c0.609,1.843 1.517,3.453 2.796,4.912c1.211,1.381 2.705,2.506 4.338,3.339c7.549,3.852 16.856,0.954 21.837,-5.669c0.704,-0.936 1.284,-1.959 1.861,-2.978c0.263,-0.466 0.458,-0.969 0.655,-1.466c0.211,-0.533 0.392,-1.077 0.557,-1.625c0.278,-0.923 0.643,-2.116 0.611,-3.203c-0.012,-0.387 -0.072,-0.774 -0.367,-1.02c0,0 -12.605,0.124 -15.5,0.153Z" style="fill:#00add8;"/><path d="M26.239,47.769c-0.115,0.2 -0.329,0.324 -0.561,0.324l-17.464,0c-0.238,0 -0.456,-0.13 -0.569,-0.34c-0.113,-0.209 -0.102,-0.463 0.029,-0.662l0.805,-1.226c0.12,-0.182 0.323,-0.292 0.541,-0.292l17.363,0c0.231,0 0.444,0.123 0.56,0.323c0.115,0.2 0.116,0.446 0.001,0.646l-0.705,1.227Z" style="fill:#00add8;"/><path d="M26.239,47.769c-0.115,0.2 -0.329,0.324 -0.561,0.324l-17.464,0c-0.238,0 -0.456,-0.13 -0.569,-0.34c-0.113,-0.209 -0.102,-0.463 0.029,-0.662l0.805,-1.226c0.12,-0.182 0.323,-0.292 0.541,-0.292l17.363,0c0.231,0 0.444,0.123 0.56,0.323c0.115,0.2 0.116,0.446 0.001,0.646l-0.705,1.227Z" style="fill:#00add8;"/><path d="M24.825,50.643c-0.145,0.377 -0.384,1.03 -0.506,1.366c-0.095,0.26 -0.337,0.427 -0.595,0.427l-21.343,0.011c-0.241,-0 -0.46,-0.141 -0.561,-0.372c-0.092,-0.212 -0.066,-0.467 0.072,-0.657l0.886,-1.226c0.122,-0.17 0.312,-0.265 0.509,-0.265l21.067,-0c0.175,-0 0.336,0.089 0.43,0.243c0.085,0.139 0.102,0.315 0.041,0.473c-0.03,0.08 -0.091,0.144 -0.169,0.179c0.099,-0.044 0.141,-0.105 0.169,-0.179Z" style="fill:#00add8;"/><path d="M24.825,50.643c-0.145,0.377 -0.384,1.03 -0.506,1.366c-0.095,0.26 -0.337,0.427 -0.595,0.427l-21.343,0.011c-0.241,-0 -0.46,-0.141 -0.561,-0.372c-0.092,-0.212 -0.066,-0.467 0.072,-0.657l0.886,-1.226c0.122,-0.17 0.312,-0.265 0.509,-0.265l21.067,-0c0.175,-0 0.336,0.089 0.43,0.243c0.085,0.139 0.102,0.315 0.041,0.473c-0.03,0.08 -0.091,0.144 -0.169,0.179c0.099,-0.044 0.141,-0.105 0.169,-0.179Z" style="fill:#00add8;"/><path d="M23.156,56.536c-0.089,0.262 -0.334,0.438 -0.61,0.44l-9.977,0.055c-0.237,0.001 -0.456,-0.127 -0.57,-0.335c-0.114,-0.208 -0.106,-0.462 0.023,-0.662l0.785,-1.221c0.119,-0.185 0.324,-0.297 0.544,-0.297l9.587,-0c0.208,-0 0.404,0.1 0.526,0.27c0.121,0.169 0.154,0.387 0.087,0.584l-0.395,1.166Z" style="fill:#00add8;"/><path d="M23.156,56.536c-0.089,0.262 -0.334,0.438 -0.61,0.44l-9.977,0.055c-0.237,0.001 -0.456,-0.127 -0.57,-0.335c-0.114,-0.208 -0.106,-0.462 0.023,-0.662l0.785,-1.221c0.119,-0.185 0.324,-0.297 0.544,-0.297l9.587,-0c0.208,-0 0.404,0.1 0.526,0.27c0.121,0.169 0.154,0.387 0.087,0.584l-0.395,1.166Z" style="fill:#00add8;"/></g></g></svg>