<?xml version="1.0" encoding="utf-8"?>
<!-- Generator: Adobe Illustrator 27.3.1, SVG Export Plug-In . SVG Version: 6.00 Build 0)  -->
<svg version="1.1" id="Layer_2_00000083798332696367286100000006803172613653178001_"
	 xmlns="http://www.w3.org/2000/svg" xmlns:xlink="http://www.w3.org/1999/xlink" x="0px" y="0px" viewBox="0 0 121.4 117.7"
	 style="enable-background:new 0 0 121.4 117.7;" xml:space="preserve">
<style type="text/css">
	.st0{fill:#E44D26;}
	.st1{fill:#F16529;}
	.st2{fill:#EBEBEB;}
	.st3{fill:#FFFFFF;}
</style>
<g>
	<path class="st0" d="M24.2,99.3l-8.1-91h89.1l-8.1,91l-36.5,10.1L24.2,99.3z"/>
	<path class="st1" d="M60.7,101.7l29.5-8.2l6.9-77.7H60.7V101.7z"/>
	<path class="st2" d="M60.7,49.5H45.9l-1-11.4h15.8V26.9h-28l0.3,3l2.7,30.8h25V49.5z M60.7,78.5L60.7,78.5l-12.5-3.3l-0.8-8.9H36.2
		l1.6,17.5l22.9,6.3l0.1,0L60.7,78.5z"/>
	<path class="st3" d="M60.7,49.5v11.2h13.7l-1.3,14.5l-12.4,3.4v11.6l22.9-6.3l0.2-1.9l2.6-29.4l0.3-3h-3H60.7z M60.7,26.9v11.2h27
		l0.2-2.5l0.5-5.7l0.3-3H60.7z"/>
</g>
</svg>
