<?xml version="1.0" encoding="UTF-8" standalone="no"?><!DOCTYPE svg PUBLIC "-//W3C//DTD SVG 1.1//EN" "http://www.w3.org/Graphics/SVG/1.1/DTD/svg11.dtd"><svg width="100%" height="100%" viewBox="0 0 534 534" version="1.1" xmlns="http://www.w3.org/2000/svg" xmlns:xlink="http://www.w3.org/1999/xlink" xml:space="preserve" xmlns:serif="http://www.serif.com/" style="fill-rule:evenodd;clip-rule:evenodd;stroke-linejoin:round;stroke-miterlimit:2;"><g><path d="M33.333,68.938c0,-9.444 3.752,-18.5 10.429,-25.178c6.678,-6.677 15.734,-10.429 25.178,-10.429l395.454,0c9.443,0 18.5,3.752 25.177,10.429c6.678,6.678 10.429,15.734 10.429,25.178l-0,395.457c0,9.444 -3.751,18.5 -10.429,25.178c-6.677,6.677 -15.734,10.429 -25.177,10.429l-395.454,-0c-9.444,-0 -18.5,-3.752 -25.178,-10.429c-6.677,-6.678 -10.429,-15.734 -10.429,-25.178l0,-395.457Z" style="fill:#f0db4f;fill-rule:nonzero;"/><path d="M461.808,388.7c-3.418,-21.29 -17.301,-39.173 -58.423,-55.847c-14.285,-6.565 -30.21,-11.266 -34.956,-22.092c-1.685,-6.3 -1.908,-9.848 -0.842,-13.662c3.06,-12.377 17.834,-16.235 29.543,-12.686c7.542,2.528 14.68,8.339 18.986,17.61c20.138,-13.04 20.097,-12.954 34.158,-21.916c-5.148,-7.981 -7.895,-11.664 -11.265,-15.079c-12.112,-13.528 -28.615,-20.495 -55.008,-19.962l-13.749,1.778c-13.174,3.329 -25.729,10.244 -33.092,19.515c-22.091,25.066 -15.791,68.935 11.091,86.989c26.482,19.877 65.386,24.399 70.355,42.986c4.835,22.755 -16.723,30.121 -38.151,27.504c-15.791,-3.284 -24.574,-11.31 -34.068,-25.905c-17.476,10.114 -17.476,10.114 -35.445,20.448c4.261,9.316 8.738,13.532 15.881,21.603c33.804,34.288 118.396,32.603 133.569,-19.296c0.615,-1.782 4.7,-13.666 1.416,-31.988Zm-174.78,-140.887l-43.649,0l-0.179,112.849c-0,24 1.241,46.002 -2.662,52.746c-6.386,13.263 -22.934,11.619 -30.475,9.047c-7.676,-3.772 -11.579,-9.137 -16.101,-16.719c-1.241,-2.177 -2.173,-3.862 -2.486,-3.993l-35.489,21.734c5.901,12.111 14.594,22.624 25.73,29.453c16.633,9.984 38.989,13.044 62.37,7.676c15.217,-4.432 28.347,-13.614 35.221,-27.59c9.938,-18.322 7.806,-40.499 7.716,-65.028c0.224,-40.019 0.004,-80.03 0.004,-120.175Z" style="fill:#323330;fill-rule:nonzero;"/></g></svg>