<?xml version="1.0" encoding="utf-8"?>
<!-- Generator: Adobe Illustrator 27.7.0, SVG Export Plug-In . SVG Version: 6.00 Build 0)  -->
<svg version="1.1" id="Layer_1" xmlns:serif="http://www.serif.com/"
	 xmlns="http://www.w3.org/2000/svg" xmlns:xlink="http://www.w3.org/1999/xlink" x="0px" y="0px" viewBox="0 0 512 512"
	 style="enable-background:new 0 0 512 512;" xml:space="preserve">
<style type="text/css">
	.st0{fill:#F0DB4F;}
	.st1{fill:#323330;}
</style>
<g>
	<path class="st0" d="M40.4,73.2c0-8.7,3.5-17.1,9.6-23.2c6.2-6.2,14.5-9.6,23.2-9.6h364.9c8.7,0,17.1,3.5,23.2,9.6
		c6.2,6.2,9.6,14.5,9.6,23.2v364.9c0,8.7-3.5,17.1-9.6,23.2c-6.2,6.2-14.5,9.6-23.2,9.6H73.2c-8.7,0-17.1-3.5-23.2-9.6
		c-6.2-6.2-9.6-14.5-9.6-23.2V73.2L40.4,73.2z"/>
	<path class="st1" d="M435.8,368.3c-3.2-19.6-16-36.1-53.9-51.5c-13.2-6.1-27.9-10.4-32.3-20.4c-1.6-5.8-1.8-9.1-0.8-12.6
		c2.8-11.4,16.5-15,27.3-11.7c7,2.3,13.5,7.7,17.5,16.3c18.6-12,18.5-12,31.5-20.2c-4.8-7.4-7.3-10.8-10.4-13.9
		c-11.2-12.5-26.4-18.9-50.8-18.4l-12.7,1.6c-12.2,3.1-23.7,9.5-30.5,18c-20.4,23.1-14.6,63.6,10.2,80.3
		c24.4,18.3,60.3,22.5,64.9,39.7c4.5,21-15.4,27.8-35.2,25.4c-14.6-3-22.7-10.4-31.4-23.9c-16.1,9.3-16.1,9.3-32.7,18.9
		c3.9,8.6,8.1,12.5,14.7,19.9c31.2,31.6,109.3,30.1,123.3-17.8C435,396.2,438.8,385.2,435.8,368.3L435.8,368.3z M274.5,238.3h-40.3
		L234,342.4c0,22.1,1.1,42.5-2.5,48.7c-5.9,12.2-21.2,10.7-28.1,8.3c-7.1-3.5-10.7-8.4-14.9-15.4c-1.1-2-2-3.6-2.3-3.7l-32.7,20.1
		c5.4,11.2,13.5,20.9,23.7,27.2c15.3,9.2,36,12,57.6,7.1c14-4.1,26.2-12.6,32.5-25.5c9.2-16.9,7.2-37.4,7.1-60
		C274.7,312.3,274.5,275.3,274.5,238.3L274.5,238.3z"/>
</g>
</svg>
