<?xml version="1.0" encoding="utf-8"?>
<!-- Generator: Adobe Illustrator 27.3.1, SVG Export Plug-In . SVG Version: 6.00 Build 0)  -->
<svg version="1.1" id="Layer_2_00000083798332696367286100000006803172613653178001_"
	 xmlns="http://www.w3.org/2000/svg" xmlns:xlink="http://www.w3.org/1999/xlink" x="0px" y="0px" viewBox="0 0 121.4 117.7"
	 style="enable-background:new 0 0 121.4 117.7;" xml:space="preserve">
<style type="text/css">
	.st0{fill:#F2D488;}
</style>
<g>
	<path class="st0" d="M16.1,54.9c8.4-0.1,9.4-4.7,9.4-8.5c0-3.1-0.4-6.4-0.7-9.6c-0.5-3.4-0.8-6.6-0.8-9.7
		c0-11.3,7.2-16.1,17.9-16.1h3.5v8.6h-2.2c-6.2,0-8.4,3.5-8.4,9.4c0,2.4,0.4,4.9,0.8,7.6c0.2,2.6,0.7,5.5,0.7,8.6
		c0.1,8.4-3.5,12-9.6,13.4v0.2c6.1,1.4,9.7,5.2,9.6,13.6c0,3.2-0.5,6.1-0.7,8.8c-0.5,2.6-0.8,5.2-0.8,7.6c0,6,2.4,9.5,8.4,9.5h2.2
		v8.5h-3.5c-10.4,0-17.9-4.3-17.9-16.4c0-3,0.4-6.4,0.8-9.6c0.4-3.2,0.7-6.4,0.7-9.5c0-3.5-1-8.4-9.4-8.5V54.9z"/>
	<path class="st0" d="M105.3,62.7c-8.3,0.1-9.4,5-9.4,8.5c0,3.1,0.5,6.2,0.8,9.5s0.8,6.6,0.8,9.6c0,12.1-7.4,16.4-17.9,16.4h-3.5
		v-8.5h2.2c6-0.1,8.3-3.5,8.3-9.5c0-2.4-0.4-4.9-0.7-7.6c-0.4-2.6-0.7-5.5-0.7-8.8c-0.1-8.4,3.5-12.1,9.5-13.6v-0.2
		c-6-1.4-9.6-5-9.5-13.4c0-3.1,0.4-6,0.7-8.6c0.4-2.6,0.7-5.2,0.7-7.6c0-5.9-2.2-9.2-8.3-9.4h-2.2V11h3.5c10.7,0,17.9,4.8,17.9,16.1
		c0,3.1-0.5,6.4-0.8,9.7c-0.4,3.2-0.8,6.5-0.8,9.6c0,3.8,1.1,8.4,9.4,8.5V62.7z"/>
</g>
</svg>
