<?xml version="1.0" encoding="utf-8"?>
<!-- Generator: Adobe Illustrator 27.7.0, SVG Export Plug-In . SVG Version: 6.00 Build 0)  -->
<svg version="1.1" id="Layer_1" xmlns:serif="http://www.serif.com/"
	 xmlns="http://www.w3.org/2000/svg" xmlns:xlink="http://www.w3.org/1999/xlink" x="0px" y="0px" viewBox="0 0 512 512"
	 style="enable-background:new 0 0 512 512;" xml:space="preserve">
<style type="text/css">
	.st0{fill:#D2D2D2;}
	.st1{fill:none;stroke:#D2D2D2;stroke-width:22;stroke-linejoin:round;stroke-miterlimit:10;}
	.st2{fill:#D2D2D2;stroke:#D2D2D2;stroke-width:12;stroke-linejoin:round;stroke-miterlimit:10;}
</style>
<path class="st0" d="M192.5,176.2c-0.6,0,3.9-53,4.4-56.8c1.8-13.1,5.6-26.4,14.4-36.3c11-12.3,28.2-17.7,44.4-17.7
	c18.3,0,33.6,6.6,46.8,19.8c0.9,0.9,1.7,1.7,2.5,2.6c3.6,4,9.8,3.9,13.4-0.1l8.7-9.9c3.1-3.5,3-8.7-0.1-12.1
	c-0.8-0.9-1.7-1.8-2.5-2.7c-19-19.4-41.7-29.1-68.7-29.1S206,43.7,186.9,63c-19,19.4-25.5,85.7-25.5,113.2
	C161.4,176.2,192.4,176.2,192.5,176.2z"/>
<path class="st1" d="M214.2,185.7l-91.6-0.5c-8.4,0-15.7,3.5-21.6,9.3c-5.8,5.8-9.1,13.6-9.1,22.1v226.9c0,8.5,3.3,15.9,9.1,22.1
	c5.9,6.2,13.2,9.3,21.6,9.3v0v0v0.4h266.2c8.4,0,15.7-3.1,21.6-9.3c5.8-5.8,9.1-13.6,9.1-22.1V216.7c0-8.5-3.3-15.9-9.1-22.1
	c-5.8-6.2-13.2-9.3-21.6-9.3l-33.3,0.5c-1.5,0-2.6-1.2-2.6-2.8v-8.5l-31.1-0.1v8.9c0,1.2-1.1,2.3-2.6,2.3L214.2,185.7z"/>
<path class="st2" d="M276,342.3v53.1h-41v-52.8c-10.1-6.4-16.7-17.6-16.7-30.2c0-19.9,16.6-36.1,37-36.1s37,16.2,37,36.1
	C292.3,324.8,285.8,335.8,276,342.3z"/>
</svg>
