<?xml version="1.0" encoding="utf-8"?>
<!-- Generator: Adobe Illustrator 27.3.1, SVG Export Plug-In . SVG Version: 6.00 Build 0)  -->
<svg version="1.1" id="Layer_1" xmlns="http://www.w3.org/2000/svg" xmlns:xlink="http://www.w3.org/1999/xlink" x="0px" y="0px"
	 viewBox="0 0 128 128" style="enable-background:new 0 0 128 128;" xml:space="preserve">
<style type="text/css">
	.st0{fill:#D2D2D2;}
</style>
<path class="st0" d="M27.6,120.6c-2.3,0-4.3-0.8-5.9-2.4c-1.6-1.6-2.5-3.5-2.5-5.7V54c0-2.2,0.9-4.2,2.5-5.7s3.6-2.4,5.9-2.4h9.1
	c0.4,0,0.7-0.3,0.7-0.6V33c0-7.1,2.6-13.1,7.8-18.1s11.4-7.5,18.8-7.5s13.6,2.5,18.8,7.5c5.2,5,7.8,11,7.8,18.1v12.3
	c0,0.4,0.3,0.6,0.7,0.6h9.1c2.3,0,4.3,0.8,5.9,2.4c1.6,1.6,2.5,3.5,2.5,5.7v58.6c0,2.2-0.9,4.2-2.5,5.7c-1.6,1.6-3.6,2.4-5.9,2.4
	H27.6V120.6z M34.3,112.6h59.3c3.6,0,6.7-2.9,6.7-6.5V60.5c0-3.5-3-6.5-6.7-6.5H34.3c-3.6,0-6.7,2.9-6.7,6.5v45.7
	C27.6,109.7,30.6,112.6,34.3,112.6z M46.4,46h35c0.4,0,0.7-0.3,0.7-0.6V33c0-4.9-1.7-9-5.3-12.4S69,15.5,64,15.5
	c-5.1,0-9.3,1.7-12.8,5.1s-5.3,7.6-5.3,12.4v12.3C45.7,45.7,46,46,46.4,46z M27.6,112.6V54V112.6z"/>
<ellipse class="st0" cx="63.9" cy="78.8" rx="8.3" ry="8.1"/>
<rect x="61.1" y="82.5" class="st0" width="5.7" height="14.9"/>
</svg>
