<?xml version="1.0" encoding="UTF-8" standalone="no"?><!DOCTYPE svg PUBLIC "-//W3C//DTD SVG 1.1//EN" "http://www.w3.org/Graphics/SVG/1.1/DTD/svg11.dtd"><svg width="100%" height="100%" viewBox="0 0 534 534" version="1.1" xmlns="http://www.w3.org/2000/svg" xmlns:xlink="http://www.w3.org/1999/xlink" xml:space="preserve" xmlns:serif="http://www.serif.com/" style="fill-rule:evenodd;clip-rule:evenodd;stroke-linejoin:round;stroke-miterlimit:2;"><path d="M127.865,495.429c-8.771,-0 -16.397,-3.236 -22.499,-9.709c-6.101,-6.472 -9.533,-14.159 -9.533,-23.058l0,-236.651c0,-8.899 3.432,-16.99 9.533,-23.058c6.102,-6.068 13.728,-9.709 22.499,-9.709l34.7,0c1.525,0 2.669,-1.213 2.669,-2.427l0,-49.757c0,-28.722 9.915,-52.994 29.744,-73.22c19.829,-20.227 43.471,-30.34 71.689,-30.34c28.218,-0 51.86,10.113 71.689,30.34c19.829,20.226 29.743,44.498 29.743,73.22l-0,49.757c-0,1.618 1.144,2.427 2.669,2.427l34.701,0c8.77,0 16.397,3.237 22.498,9.709c6.101,6.473 9.533,14.159 9.533,23.058l-0,237.055c-0,8.9 -3.432,16.991 -9.533,23.059c-6.101,6.472 -13.728,9.708 -22.498,9.708l-277.604,0l-0,-0.404Zm25.548,-32.363l226.126,0c13.727,0 25.548,-11.731 25.548,-26.294l0,-184.466c0,-14.159 -11.439,-26.295 -25.548,-26.295l-226.126,0c-13.727,0 -25.548,11.732 -25.548,26.295l-0,184.87c-0,14.159 11.439,25.89 25.548,25.89Zm46.141,-269.417l133.463,-0c1.525,-0 2.669,-1.214 2.669,-2.427l0,-50.162c0,-19.822 -6.482,-36.408 -20.21,-50.162c-13.727,-13.754 -29.743,-20.631 -48.809,-20.631c-19.448,-0 -35.464,6.877 -48.81,20.631c-13.346,13.754 -20.21,30.744 -20.21,50.162l-0,49.757c-0.763,1.618 0.381,2.832 1.907,2.832Zm-71.689,269.417l-0,-237.055l-0,237.055Z" style="fill:#d2d2d2;fill-rule:nonzero;"/><ellipse cx="266.25" cy="328.333" rx="34.583" ry="33.75" style="fill:#d2d2d2;"/><rect x="254.583" y="343.75" width="23.75" height="62.083" style="fill:#d2d2d2;"/></svg>