<?xml version="1.0" encoding="UTF-8" standalone="no"?><!DOCTYPE svg PUBLIC "-//W3C//DTD SVG 1.1//EN" "http://www.w3.org/Graphics/SVG/1.1/DTD/svg11.dtd"><svg width="100%" height="100%" viewBox="0 0 600 600" version="1.1" xmlns="http://www.w3.org/2000/svg" xmlns:xlink="http://www.w3.org/1999/xlink" xml:space="preserve" xmlns:serif="http://www.serif.com/" style="fill-rule:evenodd;clip-rule:evenodd;stroke-linejoin:round;stroke-miterlimit:2;"><g><g><path d="M262.518,388.949c-1.757,13.996 -6.793,25.543 -14.758,34.291c-7.848,8.514 -18.975,12.946 -33.031,12.946c-10.542,-0 -19.444,-1.983 -26.706,-6.065c-7.262,-3.966 -13.235,-9.331 -17.804,-15.979c-4.568,-6.648 -7.964,-14.346 -10.073,-22.86c-2.108,-8.514 -3.162,-17.378 -3.162,-26.359c-0,-9.448 1.054,-18.662 3.162,-27.526c2.109,-8.747 5.505,-16.562 10.073,-23.443c4.569,-6.765 10.425,-12.13 17.804,-16.212c7.262,-3.966 16.281,-6.065 26.706,-6.065c5.622,-0 11.245,0.933 16.398,2.799c5.154,1.866 9.956,4.432 14.056,7.815c4.1,3.265 7.613,7.231 10.307,11.546c2.694,4.316 4.451,9.098 5.271,14.346l0.352,2.216l52.474,0l-0.351,-2.916c-1.523,-13.063 -5.154,-24.843 -10.893,-34.99c-5.74,-10.147 -13.119,-18.778 -22.021,-25.659c-8.785,-6.881 -18.858,-12.13 -29.985,-15.746c-11.128,-3.615 -23.075,-5.365 -35.491,-5.365c-17.452,0 -33.382,3.033 -47.086,9.214c-13.705,6.065 -25.535,14.696 -35.139,25.426c-9.488,10.731 -16.867,23.444 -22.021,37.906c-5.037,14.463 -7.613,30.092 -7.613,46.537c-0,16.096 2.576,31.491 7.613,45.72c5.037,14.23 12.416,26.826 22.021,37.323c9.487,10.497 21.317,19.011 35.139,25.076c13.704,6.065 29.634,9.214 47.086,9.214c13.939,0 26.94,-2.216 38.536,-6.531c11.713,-4.315 22.021,-10.614 30.688,-18.661c8.668,-8.048 15.813,-17.845 21.084,-29.275c5.271,-11.314 8.55,-24.26 9.839,-38.256l0.234,-2.799l-52.357,-0l-0.352,2.332Z" style="fill:#fff;fill-rule:nonzero;"/><path d="M388.902,430.937l0,-179.849l-54.114,0l-0,225.803l162.225,-0l0,-45.954l-108.111,0Z" style="fill:#fff;fill-rule:nonzero;"/></g><g><path d="M245.918,169.208c-5.25,8.114 -13.844,13.36 -23.391,14.314c-0.007,0.001 -0.014,0.002 -0.021,0.003c-24.241,2.312 -47.206,7.732 -68.337,15.627c-2.204,0.823 -4.68,-0.095 -5.814,-2.157c-6.257,-11.376 -14.382,-26.083 -20.639,-37.784c-0.601,-1.126 -0.724,-2.446 -0.34,-3.663c0.384,-1.217 1.242,-2.228 2.381,-2.804c41.092,-20.793 89.659,-34.45 142.175,-38.395c1.79,-0.134 3.502,0.753 4.424,2.293c0.921,1.539 0.895,3.468 -0.068,4.982c-4.546,7.142 -18.507,29.058 -30.357,47.565c-0.005,0.006 -0.009,0.012 -0.013,0.019Z" style="fill:#abd038;fill-rule:nonzero;"/><path d="M429.227,245.736c-11.126,-5.279 -26.072,-20.38 -61.479,-37.677c-1.527,-0.746 -2.538,-2.253 -2.65,-3.949c-0.112,-1.696 0.693,-3.323 2.11,-4.263c8.925,-5.923 64.91,-43.409 84.465,-56.472c1.325,-0.885 3.006,-1.046 4.474,-0.427c56.109,23.633 100.837,59.817 126.95,103.2c0.883,1.466 0.906,3.295 0.062,4.784c-0.845,1.489 -2.426,2.408 -4.138,2.403c-29.13,-0.081 -82.114,-0.162 -110.189,-0.162c-16.173,-0 -27.711,-1.79 -39.605,-7.437Z" style="fill:#ee332d;fill-rule:nonzero;"/><path d="M282.774,113.692c6.89,-0.328 13.863,-0.573 20.918,-0.573c51.17,-0 99.298,9.208 141.597,25.388c1.75,0.669 2.941,2.306 3.041,4.177c0.099,1.871 -0.912,3.625 -2.581,4.476c0,0 -80.823,41.223 -80.823,41.223c-12.095,6.221 -26.145,7.561 -39.218,3.915l-0.001,-0c-19.708,-5.506 -40.773,-8.854 -62.635,-9.812c-1.482,-0.064 -2.848,-0.819 -3.692,-2.038c-0.844,-1.22 -1.068,-2.764 -0.607,-4.174c4.386,-13.4 18.193,-54.821 19.736,-59.369c0.626,-1.846 2.318,-3.12 4.265,-3.213Z" style="fill:#f2ba1a;fill-rule:nonzero;"/><path d="M16.762,257.436c20.852,-39.966 57.041,-74.443 103.626,-99.68c1.35,-0.732 2.971,-0.764 4.349,-0.087c1.378,0.676 2.343,1.979 2.59,3.494c0.569,3.494 2.681,16.571 4.631,29.245c1.602,9.985 -3.323,19.976 -12.179,24.907c-19.588,11.023 -36.644,24.337 -50.522,39.484l-0.01,0.011c-5.686,6.168 -13.684,9.642 -22.07,9.642l-0.014,0l-26.212,-0.081c-1.655,-0.005 -3.188,-0.873 -4.044,-2.29c-0.856,-1.417 -0.911,-3.177 -0.145,-4.645Z" style="fill:#3dae2b;fill-rule:nonzero;"/></g></g></svg>