<?xml version="1.0" encoding="UTF-8" standalone="no"?><!DOCTYPE svg PUBLIC "-//W3C//DTD SVG 1.1//EN" "http://www.w3.org/Graphics/SVG/1.1/DTD/svg11.dtd"><svg width="100%" height="100%" viewBox="0 0 534 534" version="1.1" xmlns="http://www.w3.org/2000/svg" xmlns:xlink="http://www.w3.org/1999/xlink" xml:space="preserve" xmlns:serif="http://www.serif.com/" style="fill-rule:evenodd;clip-rule:evenodd;stroke-linejoin:round;stroke-miterlimit:2;"><g><path d="M506.239,73.052l-390.635,-0c-12.34,-0 -24.255,9.787 -27.233,22.127l-78.298,342.975c-2.978,12.341 4.681,22.128 17.022,22.128l390.634,-0c12.34,-0 24.255,-9.787 27.234,-22.128l78.297,-342.549c2.979,-12.341 -4.681,-22.553 -17.021,-22.553Z" style="fill:url(#_Linear1);"/><path d="M267.518,370.07l94.892,-0c11.064,-0 20,9.362 20,20.851c0,11.489 -8.936,20.851 -20,20.851l-94.892,-0c-11.064,-0 -20,-9.362 -20,-20.851c-0,-11.489 8.936,-20.851 20,-20.851Zm61.701,-92.765c-1.702,3.404 -5.106,6.808 -11.063,11.064l-176.594,126.807c-9.788,6.808 -23.405,4.255 -31.064,-5.958c-7.234,-10.212 -5.532,-24.255 3.83,-31.063l159.147,-115.318l0,-2.553l-99.999,-106.382c-8.085,-8.511 -7.234,-22.553 1.702,-31.489c9.362,-8.511 23.404,-8.511 31.489,-0l119.999,127.658c7.234,8.085 7.66,19.149 2.553,27.234Z" style="fill:#2c5591;"/><path d="M324.538,273.05c-1.702,3.404 -5.106,6.808 -11.063,11.063l-176.169,126.808c-9.787,6.808 -23.404,4.255 -31.063,-5.958c-7.234,-10.212 -5.532,-24.255 3.829,-31.063l159.148,-115.318l-0,-2.554l-99.999,-106.381c-8.085,-8.511 -7.234,-22.553 1.702,-31.49c9.362,-8.51 23.404,-8.51 31.489,0l119.999,127.659c7.234,7.659 7.659,18.723 2.127,27.234Zm-59.999,94.892l94.893,0c11.063,0 20,8.936 20,19.575c-0,11.063 -8.937,19.574 -20,19.574l-94.893,-0c-11.064,-0 -20,-8.936 -20,-19.574c0,-11.064 8.936,-19.575 20,-19.575Z" style="fill:#fff;"/></g><defs><linearGradient id="_Linear1" x1="0" y1="0" x2="1" y2="0" gradientUnits="userSpaceOnUse" gradientTransform="matrix(294.606,261.627,-261.627,294.606,102.141,120.583)"><stop offset="0" style="stop-color:#467bd8;stop-opacity:1"/><stop offset="0.45" style="stop-color:#3f6fc1;stop-opacity:1"/><stop offset="1" style="stop-color:#2571be;stop-opacity:1"/></linearGradient></defs></svg>