<?xml version="1.0" encoding="utf-8"?>
<!-- Generator: Adobe Illustrator 27.3.1, SVG Export Plug-In . SVG Version: 6.00 Build 0)  -->
<svg version="1.1" id="Layer_1" xmlns="http://www.w3.org/2000/svg" xmlns:xlink="http://www.w3.org/1999/xlink" x="0px" y="0px"
	 viewBox="0 0 128 128" style="enable-background:new 0 0 128 128;" xml:space="preserve">
<style type="text/css">
	.st0{fill:url(#SVGID_1_);}
	.st1{fill:url(#SVGID_00000057826613471371900450000016789820556582917025_);}
</style>
<linearGradient id="SVGID_1_" gradientUnits="userSpaceOnUse" x1="206.0313" y1="-624.3129" x2="306.4384" y2="-537.926" gradientTransform="matrix(0.563 0 0 0.568 -105.69 369.837)">
	<stop  offset="0" style="stop-color:#5A9FD4"/>
	<stop  offset="1" style="stop-color:#306998"/>
</linearGradient>
<path class="st0" d="M63.4,12.2c-4.2,0-8.3,0.4-11.8,1C41.1,15.1,39.2,19,39.2,26.1v9.4h24.7v3.1H30c-7.2,0-13.5,4.3-15.4,12.5
	c-2.3,9.4-2.4,15.3,0,25.1c1.8,7.3,5.9,12.5,13.1,12.5h8.5V77.5c0-8.2,7.1-15.3,15.4-15.3h24.7c6.9,0,12.3-5.7,12.3-12.5V26.1
	c0-6.7-5.6-11.7-12.3-12.8C72,12.6,67.6,12.2,63.4,12.2z M50,19.8c2.5,0,4.6,2.1,4.6,4.7c0,2.6-2.1,4.7-4.6,4.7
	c-2.6,0-4.6-2.1-4.6-4.7C45.4,21.9,47.5,19.8,50,19.8z"/>
<linearGradient id="SVGID_00000130627902314262178730000000481834658119603865_" gradientUnits="userSpaceOnUse" x1="345.2005" y1="-485.6359" x2="309.3465" y2="-536.3619" gradientTransform="matrix(0.563 0 0 0.568 -105.69 369.837)">
	<stop  offset="0" style="stop-color:#FFD43B"/>
	<stop  offset="1" style="stop-color:#FFE873"/>
</linearGradient>
<path style="fill:url(#SVGID_00000130627902314262178730000000481834658119603865_);" d="M91.7,38.6v11c0,8.5-7.2,15.7-15.4,15.7
	H51.6c-6.8,0-12.3,5.8-12.3,12.5v23.5c0,6.7,5.8,10.6,12.3,12.5c7.8,2.3,15.3,2.7,24.7,0c6.2-1.8,12.3-5.4,12.3-12.5v-9.4H63.9v-3.1
	h37c7.2,0,9.9-5,12.3-12.5c2.6-7.7,2.5-15.2,0-25.1c-1.8-7.1-5.2-12.5-12.3-12.5L91.7,38.6L91.7,38.6z M77.8,98.2
	c2.6,0,4.6,2.1,4.6,4.7c0,2.6-2.1,4.7-4.6,4.7c-2.6,0-4.6-2.1-4.6-4.7C73.2,100.3,75.3,98.2,77.8,98.2z"/>
</svg>
