<?xml version="1.0" encoding="UTF-8" standalone="no"?><!DOCTYPE svg PUBLIC "-//W3C//DTD SVG 1.1//EN" "http://www.w3.org/Graphics/SVG/1.1/DTD/svg11.dtd"><svg width="100%" height="100%" viewBox="0 0 88 79" version="1.1" xmlns="http://www.w3.org/2000/svg" xmlns:xlink="http://www.w3.org/1999/xlink" xml:space="preserve" xmlns:serif="http://www.serif.com/" style="fill-rule:evenodd;clip-rule:evenodd;stroke-linejoin:round;stroke-miterlimit:2;"><circle cx="43.75" cy="39.375" r="8.333" style="fill:url(#_Linear1);stroke:url(#_Linear2);stroke-width:4.17px;"/><g><ellipse cx="43.75" cy="39.375" rx="41.667" ry="18.75" style="fill:none;stroke:url(#_Linear3);stroke-width:4.17px;stroke-linejoin:miter;stroke-miterlimit:4;"/><path d="M59.988,30c11.498,19.916 13.557,40.285 4.595,45.459c-8.962,5.175 -25.573,-6.793 -37.071,-26.709c-11.498,-19.916 -13.557,-40.285 -4.595,-45.459c8.962,-5.175 25.573,6.793 37.071,26.709Z" style="fill:none;stroke:url(#_Linear4);stroke-width:4.17px;stroke-linejoin:miter;stroke-miterlimit:4;"/><path d="M59.988,48.75c-11.498,19.916 -28.109,31.884 -37.071,26.709c-8.962,-5.174 -6.903,-25.543 4.595,-45.459c11.498,-19.916 28.109,-31.884 37.071,-26.709c8.962,5.174 6.903,25.543 -4.595,45.459Z" style="fill:none;stroke:url(#_Linear5);stroke-width:4.17px;stroke-linejoin:miter;stroke-miterlimit:4;"/></g><defs><linearGradient id="_Linear1" x1="0" y1="0" x2="1" y2="0" gradientUnits="userSpaceOnUse" gradientTransform="matrix(16.6667,0,0,16.6667,35.4167,39.375)"><stop offset="0" style="stop-color:#3178c6;stop-opacity:1"/><stop offset="1" style="stop-color:#235a97;stop-opacity:1"/></linearGradient><linearGradient id="_Linear2" x1="0" y1="0" x2="1" y2="0" gradientUnits="userSpaceOnUse" gradientTransform="matrix(16.6667,0,0,16.6667,35.4167,39.375)"><stop offset="0" style="stop-color:#3178c6;stop-opacity:1"/><stop offset="1" style="stop-color:#235a97;stop-opacity:1"/></linearGradient><linearGradient id="_Linear3" x1="0" y1="0" x2="1" y2="0" gradientUnits="userSpaceOnUse" gradientTransform="matrix(83.3333,0,0,37.5,2.08333,39.375)"><stop offset="0" style="stop-color:#3178c6;stop-opacity:1"/><stop offset="1" style="stop-color:#235a97;stop-opacity:1"/></linearGradient><linearGradient id="_Linear4" x1="0" y1="0" x2="1" y2="0" gradientUnits="userSpaceOnUse" gradientTransform="matrix(41.6667,72.1688,-32.476,18.75,22.9167,3.29061)"><stop offset="0" style="stop-color:#3178c6;stop-opacity:1"/><stop offset="1" style="stop-color:#235a97;stop-opacity:1"/></linearGradient><linearGradient id="_Linear5" x1="0" y1="0" x2="1" y2="0" gradientUnits="userSpaceOnUse" gradientTransform="matrix(-41.6667,72.1688,-32.476,-18.75,64.5833,3.29061)"><stop offset="0" style="stop-color:#3178c6;stop-opacity:1"/><stop offset="1" style="stop-color:#235a97;stop-opacity:1"/></linearGradient></defs></svg>