<?xml version="1.0" encoding="UTF-8" standalone="no"?><!DOCTYPE svg PUBLIC "-//W3C//DTD SVG 1.1//EN" "http://www.w3.org/Graphics/SVG/1.1/DTD/svg11.dtd"><svg width="100%" height="100%" viewBox="0 0 367 330" version="1.1" xmlns="http://www.w3.org/2000/svg" xmlns:xlink="http://www.w3.org/1999/xlink" xml:space="preserve" xmlns:serif="http://www.serif.com/" style="fill-rule:evenodd;clip-rule:evenodd;stroke-linejoin:round;stroke-miterlimit:2;"><circle cx="182.292" cy="164.063" r="34.721" style="fill:url(#_Linear1);stroke:url(#_Linear2);stroke-width:17.38px;"/><g><ellipse cx="182.292" cy="164.063" rx="173.613" ry="78.125" style="fill:none;stroke:url(#_Linear3);stroke-width:17.38px;stroke-linejoin:miter;stroke-miterlimit:4;"/><path d="M249.95,125c47.908,82.983 56.488,167.854 19.146,189.413c-37.342,21.562 -106.554,-28.305 -154.463,-111.288c-47.908,-82.983 -56.487,-167.854 -19.145,-189.413c37.341,-21.562 106.554,28.305 154.462,111.288Z" style="fill:none;stroke:url(#_Linear4);stroke-width:17.38px;stroke-linejoin:miter;stroke-miterlimit:4;"/><path d="M249.95,203.125c-47.908,82.983 -117.121,132.85 -154.463,111.288c-37.341,-21.559 -28.762,-106.43 19.146,-189.413c47.909,-82.983 117.121,-132.85 154.463,-111.287c37.342,21.558 28.762,106.429 -19.146,189.412Z" style="fill:none;stroke:url(#_Linear5);stroke-width:17.38px;stroke-linejoin:miter;stroke-miterlimit:4;"/></g><defs><linearGradient id="_Linear1" x1="0" y1="0" x2="1" y2="0" gradientUnits="userSpaceOnUse" gradientTransform="matrix(69.4446,0,0,69.4446,147.57,164.062)"><stop offset="0" style="stop-color:#098cb8;stop-opacity:1"/><stop offset="1" style="stop-color:#087ea4;stop-opacity:1"/></linearGradient><linearGradient id="_Linear2" x1="0" y1="0" x2="1" y2="0" gradientUnits="userSpaceOnUse" gradientTransform="matrix(69.4446,0,0,69.4446,147.57,164.062)"><stop offset="0" style="stop-color:#098cb8;stop-opacity:1"/><stop offset="1" style="stop-color:#087ea4;stop-opacity:1"/></linearGradient><linearGradient id="_Linear3" x1="0" y1="0" x2="1" y2="0" gradientUnits="userSpaceOnUse" gradientTransform="matrix(347.222,0,0,347.222,8.68054,164.062)"><stop offset="0" style="stop-color:#098cb8;stop-opacity:1"/><stop offset="1" style="stop-color:#087ea4;stop-opacity:1"/></linearGradient><linearGradient id="_Linear4" x1="0" y1="0" x2="1" y2="0" gradientUnits="userSpaceOnUse" gradientTransform="matrix(173.611,300.703,-300.703,173.611,95.4862,13.7109)"><stop offset="0" style="stop-color:#098cb8;stop-opacity:1"/><stop offset="1" style="stop-color:#087ea4;stop-opacity:1"/></linearGradient><linearGradient id="_Linear5" x1="0" y1="0" x2="1" y2="0" gradientUnits="userSpaceOnUse" gradientTransform="matrix(-173.611,300.703,-300.703,-173.611,269.097,13.7109)"><stop offset="0" style="stop-color:#098cb8;stop-opacity:1"/><stop offset="1" style="stop-color:#087ea4;stop-opacity:1"/></linearGradient></defs></svg>