<?xml version="1.0" encoding="utf-8"?>
<!-- Generator: Adobe Illustrator 27.3.1, SVG Export Plug-In . SVG Version: 6.00 Build 0)  -->
<svg version="1.1" id="Layer_1" xmlns:serif="http://www.serif.com/"
	 xmlns="http://www.w3.org/2000/svg" xmlns:xlink="http://www.w3.org/1999/xlink" x="0px" y="0px" viewBox="0 0 480 480"
	 style="enable-background:new 0 0 480 480;" xml:space="preserve">
<style type="text/css">
	.st0{fill:#F74C00;}
	.st1{fill:#FFFFFF;}
</style>
<g id="Layer-1" serif:id="Layer 1">
	<g transform="matrix(1,0,0,1,1151.27,281.813)">
		<path class="st0" d="M-690.8,7l-37.4-27.5c-0.4-1.2-0.7-2.5-1.1-3.7l12.3-17.8c1.3-1.8,1.5-4.2,0.7-6.2c-0.8-2.1-2.6-3.5-4.7-3.9
			l-20.8-3.5c-0.8-1.6-1.6-3.3-2.5-4.9l8.7-20c0.9-2,0.7-4.4-0.5-6.2c-1.2-1.9-3.2-2.9-5.3-2.9l-21.1,0.8c-1.1-1.4-2.2-2.8-3.3-4.2
			l4.8-21.4c0.5-2.2-0.1-4.4-1.6-6c-1.5-1.6-3.7-2.2-5.8-1.7l-20.5,5c-1.3-1.2-2.7-2.3-4-3.5l0.7-22c0.1-2.2-1-4.3-2.7-5.6
			c-1.8-1.2-4-1.4-6-0.5l-19.1,9.1c-1.5-0.9-3.1-1.8-4.7-2.6l-3.4-21.6c-0.3-2.2-1.8-4.1-3.7-4.9c-2-0.9-4.2-0.6-6,0.7l-17.1,12.8
			c-1.7-0.6-3.4-1.1-5.1-1.6l-7.4-20.5c-0.7-2.1-2.5-3.6-4.6-4.1c-2.1-0.4-4.3,0.3-5.7,1.9l-14.4,16.1c-1.7-0.2-3.5-0.4-5.2-0.5
			l-11.1-18.7c-1.1-1.9-3.1-3-5.2-3c-2.1,0-4.1,1.2-5.2,3l-11.1,18.7c-1.7,0.2-3.5,0.3-5.2,0.5l-14.4-16.1c-1.5-1.6-3.6-2.3-5.7-1.9
			c-2.1,0.4-3.8,2-4.6,4.1l-7.4,20.5c-1.7,0.5-3.4,1.1-5.1,1.6l-17.1-12.8c-1.7-1.3-4-1.6-6-0.7c-2,0.9-3.4,2.7-3.7,4.9l-3.4,21.6
			c-1.6,0.8-3.1,1.7-4.7,2.6l-19.1-9.1c-1.9-0.9-4.2-0.7-6,0.5c-1.8,1.2-2.8,3.3-2.7,5.6l0.7,22c-1.4,1.1-2.7,2.3-4,3.5l-20.5-5
			c-2.1-0.5-4.3,0.1-5.8,1.7c-1.5,1.6-2.1,3.9-1.6,6l4.8,21.4c-1.1,1.4-2.2,2.8-3.3,4.2l-21.1-0.8c-2.1-0.1-4.2,1-5.3,2.9
			c-1.2,1.8-1.4,4.2-0.5,6.2l8.7,20c-0.8,1.6-1.7,3.2-2.5,4.9l-20.8,3.5c-2.1,0.4-3.9,1.8-4.7,3.9c-0.8,2.1-0.5,4.4,0.7,6.2
			l12.3,17.8c-0.1,0.3-0.2,0.6-0.3,0.9l-34.7,36.9c0,0-5.3,4.2,2.4,14c6.8,8.6,41.9,42.9,60.4,60.8c7.8,9.1,13.2,14.8,13.7,14.3
			c0.9-0.8-3.8-17.4-19.2-36.8c-11.9-17.5-27.3-44.3-23.7-47.4c0,0,4.1-5.2,12.4-9c0.3,0.2-0.3-0.2,0,0c0,0,174.1,80.3,335.5,1.4
			c18.4-3.3,29.6,6.6,29.6,6.6c3.9,2.2-6.1,29.8-14.3,48.1c-11.2,20.7-12.8,36.9-11.8,37.5c0.6,0.4,4.7-5.8,10.4-15.6
			c14.3-19.9,41.3-57.8,46.2-67C-685.2,10-690.8,7-690.8,7"/>
	</g>
</g>
<ellipse cx="184.5" cy="243.6" rx="38.7" ry="51.8"/>
<ellipse cx="307.7" cy="242.5" rx="38.7" ry="51.8"/>
<g transform="matrix(1,0,0,1,727.738,435.209)">
	<path class="st1" d="M-414.9-207.1c0,11.6-6.9,21.1-15.3,21.1c-8.5,0-15.3-9.4-15.3-21.1c0-11.6,6.9-21.1,15.3-21.1
		C-421.8-228.2-414.9-218.8-414.9-207.1"/>
</g>
<g transform="matrix(1,0,0,1,520.766,436.428)">
	<path class="st1" d="M-336.2-207.1c0,11.8-7,21.4-15.5,21.4c-8.6,0-15.5-9.6-15.5-21.4c0-11.8,7-21.4,15.5-21.4
		C-343.1-228.5-336.2-218.9-336.2-207.1"/>
</g>
</svg>
