<?xml version="1.0" encoding="utf-8"?>
<!-- Generator: Adobe Illustrator 27.3.1, SVG Export Plug-In . SVG Version: 6.00 Build 0)  -->
<svg version="1.1" id="Layer_1" xmlns="http://www.w3.org/2000/svg" xmlns:xlink="http://www.w3.org/1999/xlink" x="0px" y="0px"
	 viewBox="0 0 32 32" style="enable-background:new 0 0 32 32;" xml:space="preserve">
<style type="text/css">
	.st0{fill:#F2D488;}
</style>
<path class="st0" d="M29.6,16l-0.9-1.1v-0.3l1-0.9c0.2-0.2,0.2-0.4,0-0.6L29.6,13l-1.3-0.5l-0.1-0.3l0.8-1.1
	c0.1-0.2,0.1-0.5-0.1-0.6c0,0-0.1,0-0.1-0.1l-1.4-0.2l-0.2-0.3l0.6-1.3c0.1-0.2,0-0.5-0.2-0.5h-0.1h-1.4l-0.2-0.3l0.2-1.3
	c0-0.2-0.1-0.4-0.3-0.5h-0.1l-1.3,0.3l-0.3-0.2V4.7c0-0.2-0.2-0.4-0.4-0.4h-0.1l-1.3,0.6L22,4.7l-0.2-1.4C21.7,3.1,21.4,3,21.2,3
	c0,0-0.1,0-0.1,0.1L20,3.9l-0.3-0.1l-0.6-1.3c-0.1-0.2-0.3-0.3-0.6-0.2c0,0-0.1,0-0.1,0.1l-0.9,1h-0.3l-0.7-1.2
	c-0.2-0.2-0.4-0.3-0.6-0.1l-0.1,0.1l-0.7,1.2h-0.3l-0.9-1c-0.2-0.2-0.4-0.2-0.6,0l-0.1,0.1l-0.5,1.3l-0.3,0.1l-1.3-0.8
	C10.9,3,10.7,3,10.5,3.2c0,0,0,0.1-0.1,0.1l-0.2,1.4L10,4.9L8.7,4.3c-0.2-0.1-0.5,0-0.5,0.2v0.1V6L7.9,6.3L6.6,6
	C6.3,5.9,6.1,6.1,6.1,6.3v0.1l0.3,1.3L6.2,8.1L4.8,8C4.6,8,4.4,8.2,4.4,8.5v0.1L5,9.9l-0.2,0.3l-1.4,0.2c-0.2,0-0.3,0.3-0.3,0.5
	c0,0,0,0.1,0.1,0.1L4,12.1l-0.1,0.3L2.6,13c-0.2,0.1-0.3,0.3-0.2,0.6c0,0,0,0.1,0.1,0.1l1,0.9v0.3l-1.2,0.7
	c-0.2,0.1-0.2,0.4-0.1,0.6l0.1,0.1L3.5,17v0.3l-1,0.9c-0.2,0.2-0.2,0.4,0,0.6l0.1,0.1l1.3,0.5L4,19.7L3.2,21
	c-0.1,0.2-0.1,0.4,0.1,0.6c0,0,0.1,0,0.1,0.1l1.4,0.2L5,22.2l-0.6,1.3c-0.1,0.2,0,0.5,0.2,0.5h0.1h1.4l0.2,0.3l-0.2,1.2
	c0,0.2,0.1,0.4,0.3,0.5h0.1l1.3-0.3l0.3,0.2v1.4c0,0.2,0.2,0.4,0.4,0.4h0.1l1.3-0.6l0.3,0.2l0.2,1.4c0.1,0.2,0.3,0.4,0.5,0.3
	c0,0,0.1,0,0.1-0.1l1.1-0.8l0.3,0.1l0.5,1.3c0.1,0.2,0.3,0.3,0.6,0.2c0,0,0.1,0,0.1-0.1l0.9-1h0.3l0.7,1.2c0.1,0.2,0.4,0.2,0.6,0.1
	l0.1-0.1l0.7-1.2h0.3l0.9,1c0.2,0.2,0.4,0.2,0.6,0l0.1-0.1l0.5-1.3l0.3-0.1l1.1,0.8c0.2,0.1,0.5,0.1,0.6-0.1c0,0,0-0.1,0.1-0.1
	l0.2-1.4l0.3-0.2l1.3,0.6c0.2,0.1,0.5,0,0.5-0.2v-0.1V26l0.3-0.2l1.3,0.3c0.2,0,0.4-0.1,0.5-0.3v-0.1l-0.3-1.3l0.2-0.3h1.4
	c0.2,0,0.4-0.2,0.4-0.4v-0.1l-0.6-1.3l0.2-0.3l1.4-0.2c0.2-0.1,0.4-0.3,0.3-0.5c0,0,0-0.1-0.1-0.1l-0.8-1.1l0.1-0.3l1.3-0.5
	c0.2-0.1,0.3-0.3,0.2-0.6c0,0,0-0.1-0.1-0.1l-1-0.9v-0.3l1.2-0.7C29.8,16.6,29.8,16.3,29.6,16L29.6,16z M5.4,16c0-2.3,0.8-4.4,2-6.2
	v0.7h1.9v11H7.5v0.6C6.2,20.4,5.4,18.3,5.4,16z M16,26.5c-3.2,0-6.1-1.4-8-3.7h7.7v-1.3h-1.9v-4.7h2l2.9,4.1
	c0.9,1.3,2.1,1.9,4.6,1.9H24C22.1,25,19.2,26.5,16,26.5z M13.8,15.5v-4.8h2.7c1.9,0,2.9,0.6,2.9,1.8v1.1c0,1.3-1,1.8-2.9,1.8H13.8z
	 M25,21.5c-0.7-0.1-1.3-0.4-1.8-1.1l-3.5-4.2c2.4-0.4,4.2-1.6,4.2-3.5c0-2.4-2.4-3.4-5.8-3.4H7.9C9.9,7,12.8,5.5,16,5.5
	c5.8,0,10.6,4.7,10.6,10.5C26.6,18,26,19.9,25,21.5z"/>
</svg>
