<?xml version="1.0" encoding="utf-8"?>
<!-- Generator: Adobe Illustrator 27.3.1, SVG Export Plug-In . SVG Version: 6.00 Build 0)  -->
<svg version="1.1" id="Layer_2_00000083798332696367286100000006803172613653178001_"
	 xmlns="http://www.w3.org/2000/svg" xmlns:xlink="http://www.w3.org/1999/xlink" x="0px" y="0px" viewBox="0 0 121.4 117.7"
	 style="enable-background:new 0 0 121.4 117.7;" xml:space="preserve">
<style type="text/css">
	.st0{fill-rule:evenodd;clip-rule:evenodd;fill:#CC6699;}
	.st1{fill:#FFFFFF;}
</style>
<path class="st0" d="M60.7,8c28.1,0,50.8,22.8,50.8,50.8c0,28.1-22.8,50.8-50.8,50.8c-28.1,0-50.8-22.8-50.8-50.8
	C9.9,30.8,32.6,8,60.7,8L60.7,8z"/>
<g>
	<path class="st1" d="M92.6,29.8c-2.3-9-17.3-12-31.4-7c-8.4,3-17.6,7.7-24.1,13.8C29.2,44,28,50.4,28.5,53
		c1.8,9.4,14.6,15.5,19.9,20v0c-1.6,0.8-12.9,6.5-15.6,12.4c-2.8,6.2,0.4,10.7,2.6,11.3c6.7,1.9,13.5-1.5,17.2-7
		c3.6-5.3,3.3-12.2,1.7-15.6c2.1-0.6,4.6-0.8,7.8-0.4c8.9,1,10.7,6.6,10.3,8.9c-0.3,2.3-2.2,3.6-2.8,4c-0.6,0.4-0.8,0.5-0.8,0.8
		c0.1,0.4,0.4,0.4,0.9,0.3c0.7-0.1,4.7-1.9,4.8-6.2c0.2-5.5-5-11.6-14.3-11.4c-3.8,0.1-6.2,0.4-7.9,1.1c-0.1-0.1-0.3-0.3-0.4-0.4
		c-5.7-6.1-16.3-10.4-15.9-18.6c0.2-3,1.2-10.8,20.3-20.4c15.7-7.8,28.2-5.7,30.4-0.9c3.1,6.8-6.7,19.5-23,21.3
		c-6.2,0.7-9.5-1.7-10.3-2.6c-0.9-0.9-1-1-1.3-0.8c-0.5,0.3-0.2,1.1,0,1.6c0.5,1.3,2.5,3.5,5.9,4.6c3,1,10.3,1.5,19.1-1.9
		C87.1,49.3,94.9,38.7,92.6,29.8z M50.6,75.8c0.7,2.7,0.7,5.3-0.1,7.6c-0.1,0.3-0.2,0.5-0.3,0.8c-0.1,0.3-0.2,0.5-0.3,0.7
		c-0.6,1.2-1.4,2.4-2.3,3.4c-3,3.2-7.1,4.4-8.8,3.4c-1.9-1.1-1-5.6,2.5-9.3c3.7-3.9,9-6.4,9-6.4l0,0C50.3,76,50.5,75.9,50.6,75.8z"
		/>
</g>
</svg>
