<?xml version="1.0" encoding="utf-8"?>
<!-- Generator: Adobe Illustrator 27.7.0, SVG Export Plug-In . SVG Version: 6.00 Build 0)  -->
<svg version="1.1" id="Layer_1" xmlns="http://www.w3.org/2000/svg" xmlns:xlink="http://www.w3.org/1999/xlink" x="0px" y="0px"
	 viewBox="0 0 89.3 116.5" style="enable-background:new 0 0 89.3 116.5;" xml:space="preserve">
<style type="text/css">
	.st0{fill:url(#SVGID_1_);}
</style>
<g>
	<linearGradient id="SVGID_1_" gradientUnits="userSpaceOnUse" x1="17.593" y1="57.1518" x2="72.2068" y2="57.1518">
		<stop  offset="0" style="stop-color:#FFFFFF"/>
		<stop  offset="1.685321e-03" style="stop-color:#FDFEFF"/>
		<stop  offset="4.752803e-02" style="stop-color:#D4E4F2"/>
		<stop  offset="9.718561e-02" style="stop-color:#B0CCE7"/>
		<stop  offset="0.153" style="stop-color:#90B8DE"/>
		<stop  offset="0.2148" style="stop-color:#74A6D6"/>
		<stop  offset="0.2845" style="stop-color:#5E98CF"/>
		<stop  offset="0.366" style="stop-color:#4D8DCA"/>
		<stop  offset="0.4667" style="stop-color:#4286C7"/>
		<stop  offset="0.6079" style="stop-color:#3B81C5"/>
		<stop  offset="1" style="stop-color:#3980C4"/>
	</linearGradient>
	<path class="st0" d="M27.8,95.1c1.3-2.6,5.7-8,7.2-9.2c1.6-1.2,3.1-2.1,4.2-2.7s1.8-0.9,1.8-0.9s0.3-0.4,0.9-1.2
		c0.6-0.8,1.5-1.9,2.5-3.4c1.1-1.4,2.3-3.2,3.7-5.2c0.7-1,1.4-2,2.1-3c0.4-0.6,0.9-1.1,1.3-1.7c0.3-0.4,1.4-2,1.4-2.5
		c-1.8,0-4.6,1.2-6.3,1.8l-9.8,3.8c-0.3,0.1-0.8,0.5-0.6,0.1l0.9-1.5c5-3.3,11.9-5.8,17.9-7.3c3-4.6,6-9.8,8.7-15.1
		c2.7-5.3,5-10.7,6.5-15.9c1.5-5.2,2.3-10.2,1.9-14.6c-0.4-4.4-2-8.2-5.2-11.1c-1.3-1.2-2.7-1.9-4.1-2.3c-1.4-0.4-2.9-0.4-4.4-0.1
		c-1.5,0.3-3.1,0.9-4.6,1.8s-3.1,2.1-4.7,3.5c-0.2,0.2-0.5,0.4-0.7,0.7c-0.2,0.2-0.5,0.5-0.7,0.7c-0.2,0.2-0.5,0.5-0.7,0.7
		c-0.2,0.2-0.4,0.5-0.7,0.7c-2.7,2.9-5.3,6.4-7.8,10.2s-4.9,8.1-7,12.5c-2.1,4.4-4,9-5.5,13.4c-1.5,4.5-2.1,8.7-2.9,12.8
		c1.5,3.4,2.9,7.2,3.3,10.9c0,0.4-0.1,0.6-0.3,0.9c-0.5-2.1-1.6-4.1-2.6-6.1c-0.3-0.6-0.7-1.3-1-1.8c-0.3-0.6-0.6-1.1-0.8-1.4
		c-0.2,0.5-0.3,1-0.5,1.5c-0.2,0.5-0.3,1-0.5,1.5c-0.2,0.5-0.3,1-0.5,1.5c-0.1,0.4-0.5,1.1-0.4,1.5c0.1,0.4,0.6,1,0.8,1.4
		c1.6,3.3,3.5,7.2,3.1,10.9c-0.8-3.3-3-7-4.7-9.9c-0.3,1-0.5,2-0.7,2.8c-1.3,3.5,0.2,5.9,1.2,9.1c1.3,4.9,2.6,10.6,3.1,15.5
		c0,1.1-0.1,2.2-0.1,3.2c0,1.1,0,2.1,0,3.2c0,1.1,0.1,2.1,0.1,3.2c0,0.8,0.1,1.5,0.1,2.3c0,0.6,0,1,0.7,1h0.7"/>
	<path d="M23.9,105.6c0.1-3.1,0.4-6.3,0.8-9.7c0.4-3.4,1-6.9,1.7-10.5c0.7-3.6,1.5-7.3,2.5-11.1c1-3.8,2.1-7.6,3.4-11.5
		c2.2-5.9,4.6-11.4,7.2-16.7s5.3-10,8.1-14.4c2.8-4.4,5.6-8.3,8.5-11.7s5.7-6.3,8.5-8.5c-2.5,2.3-5.3,5.9-8.1,10.2
		s-5.6,9.3-8.2,14.3c-2.6,5-5,10.1-7.1,14.6s-3.7,8.5-4.7,11.3c-0.9,2.4-1.9,5-2.9,8c-1,3-2,6.3-3,10.1c-1,3.8-2,8.3-2.7,13.5
		c-0.8,5.2-1.4,11.2-1.5,17.8h-1.2h-1.2V105.6z"/>
</g>
</svg>
