<?xml version="1.0" encoding="utf-8"?>
<!-- Generator: Adobe Illustrator 27.7.0, SVG Export Plug-In . SVG Version: 6.00 Build 0)  -->
<svg version="1.1" id="Layer_1" xmlns="http://www.w3.org/2000/svg"
	xmlns:xlink="http://www.w3.org/1999/xlink" x="0px" y="0px"
	viewBox="0 0 117.2 116.5" style="enable-background:new 0 0 117.2 116.5;" xml:space="preserve">
<style type="text/css">
	.st0{fill:url(#SVGID_1_);}
	.st1{fill:url(#SVGID_00000106845929384355331280000015447018690412005310_);}
	.st2{fill:url(#SVGID_00000098192360854679182960000004580460769538822823_);}
	.st3{fill:#ffffff;}
</style>
<linearGradient id="SVGID_1_" gradientUnits="userSpaceOnUse" x1="58.3421" y1="68.4714" x2="58.3421" y2="70.4529">
	<stop  offset="0" style="stop-color:#FFFFFF"/>
	<stop  offset="1.685321e-03" style="stop-color:#FDFEFF"/>
	<stop  offset="4.752803e-02" style="stop-color:#D4E4F2"/>
	<stop  offset="9.718561e-02" style="stop-color:#B0CCE7"/>
	<stop  offset="0.153" style="stop-color:#90B8DE"/>
	<stop  offset="0.2148" style="stop-color:#74A6D6"/>
	<stop  offset="0.2845" style="stop-color:#5E98CF"/>
	<stop  offset="0.366" style="stop-color:#4D8DCA"/>
	<stop  offset="0.4667" style="stop-color:#4286C7"/>
	<stop  offset="0.6079" style="stop-color:#3B81C5"/>
	<stop  offset="1" style="stop-color:#3980C4"/>
</linearGradient>
<path class="st0" d="M58.4,70.5l-0.2-2"/>
<linearGradient id="SVGID_00000008837390940904864940000001850727313658678151_" gradientUnits="userSpaceOnUse" x1="44.8563" y1="8.2822" x2="44.8563" y2="113.7977">
	<stop  offset="0" style="stop-color:#FFFFFF"/>
	<stop  offset="2.035183e-02" style="stop-color:#EEF3F7"/>
	<stop  offset="7.142115e-02" style="stop-color:#CAD8E7"/>
	<stop  offset="0.1289" style="stop-color:#AAC0D8"/>
	<stop  offset="0.1924" style="stop-color:#8EACCB"/>
	<stop  offset="0.2641" style="stop-color:#789CC1"/>
	<stop  offset="0.3478" style="stop-color:#6790B9"/>
	<stop  offset="0.4514" style="stop-color:#5C87B4"/>
	<stop  offset="0.5967" style="stop-color:#5582B1"/>
	<stop  offset="1" style="stop-color:#5381B0"/>
</linearGradient>
<path style="fill:url(#SVGID_00000008837390940904864940000001850727313658678151_);" d="M85.9,9.3c0.3-0.4,0.7-0.7,1-1l-74.6,0
	c-5.3,0-9.5,4.3-9.5,9.6v86.4c0,5.3,4.3,9.5,9.5,9.5h49c-0.4-4.7,0.4-9.8-0.3-14.1"/>
<linearGradient id="SVGID_00000104701509419834800390000015116976382199182505_" gradientUnits="userSpaceOnUse" x1="61.2178" y1="61.8829" x2="61.2178" y2="62.156">
	<stop  offset="0" style="stop-color:#FFFFFF"/>
	<stop  offset="1.685321e-03" style="stop-color:#FDFEFF"/>
	<stop  offset="4.752803e-02" style="stop-color:#D4E4F2"/>
	<stop  offset="9.718561e-02" style="stop-color:#B0CCE7"/>
	<stop  offset="0.153" style="stop-color:#90B8DE"/>
	<stop  offset="0.2148" style="stop-color:#74A6D6"/>
	<stop  offset="0.2845" style="stop-color:#5E98CF"/>
	<stop  offset="0.366" style="stop-color:#4D8DCA"/>
	<stop  offset="0.4667" style="stop-color:#4286C7"/>
	<stop  offset="0.6079" style="stop-color:#3B81C5"/>
	<stop  offset="1" style="stop-color:#3980C4"/>
</linearGradient>
<path style="fill:url(#SVGID_00000104701509419834800390000015116976382199182505_);" d="M61.3,62.2c0-0.1-0.1-0.2-0.1-0.3"/>
<path class="st3" d="M107.5,3.3c-5.5-4.9-12.1-3-18.7,2.9c-1,0.9-2,1.9-2.9,2.9C74.7,21.1,64.2,43.4,61,60.4
	c1.3,2.6,2.2,5.9,2.9,8.4c0.3,1.2,0.6,2.5,0.9,3.8c0,0-0.1-0.4-0.5-1.6L64,70.2c-0.1-0.1-0.1-0.3-0.2-0.4c-0.7-1.7-2.8-5.4-3.6-6.9
	c-0.7,2.1-1.4,4.2-2,6.3c2.6,4.8,4.1,12.9,4.1,12.9s-0.1-0.5-0.8-2.4C61,78,58.1,73,57.4,71.8c-1.2,4.3-1.6,7.2-1.2,7.9
	c0.8,1.4,1.6,3.8,2.2,6.4C60,92,61,99.2,61,99.2l0.1,1.2c-0.2,4.5-0.1,8.9,0.2,13.4h1.4c-0.1-2,0-4,0-6.1
	c0.5-12.9,3.4-28.4,8.8-44.6C80.7,38.6,93.5,19,105.1,9.6c-10.6,9.7-25,41-29.3,52.6c-4.8,13-8.2,25.2-10.3,36.8
	c3.5-10.9,15-15.6,15-15.6s5.6-7,12.2-17c-3.9,0.9-10.4,2.5-12.6,3.4c-3.2,1.4-4.1,1.8-4.1,1.8s10.3-6.4,19.2-9.2
	C107.6,43,120.9,15.4,107.5,3.3z"/>
</svg>