<?xml version="1.0" encoding="utf-8"?>
<!-- Generator: Adobe Illustrator 27.3.1, SVG Export Plug-In . SVG Version: 6.00 Build 0)  -->
<svg version="1.1" id="Layer_2_00000083798332696367286100000006803172613653178001_"
	 xmlns="http://www.w3.org/2000/svg" xmlns:xlink="http://www.w3.org/1999/xlink" x="0px" y="0px" viewBox="0 0 121.4 117.7"
	 style="enable-background:new 0 0 121.4 117.7;" xml:space="preserve">
<style type="text/css">
	.st0{fill:#F05138;}
</style>
<path class="st0" d="M87,96.9c-12.2,6.7-28.9,7.4-45.8,0.5C28.1,92.1,16.9,83,9,71.2c3.7,2.8,7.7,5.1,11.9,6.9
	c17.4,7.8,34.8,7.2,47,0c-17.4-12.8-32.2-29.4-43.3-43c-2.2-2.3-4.1-4.8-5.8-7.5C32.2,39.3,53.4,54,60.9,58.1
	c-10.8-11-20.7-22.9-29.6-35.5c14.9,14.4,31.2,27.2,48.8,38.2c0.8,0.4,1.4,0.8,1.9,1.1c0.5-1.3,1-2.5,1.3-3.8
	c4.1-14.1-0.6-30.2-10.7-43.5c23.5,13.6,37.5,39,31.6,60.4c-0.2,0.6-0.3,1.1-0.5,1.7l0.2,0.2c11.6,13.8,8.4,28.5,7,25.8
	C104.6,90.9,92.9,94.6,87,96.9z"/>
</svg>
