<?xml version="1.0" encoding="UTF-8" standalone="no"?><!DOCTYPE svg PUBLIC "-//W3C//DTD SVG 1.1//EN" "http://www.w3.org/Graphics/SVG/1.1/DTD/svg11.dtd"><svg width="100%" height="100%" viewBox="0 0 534 534" version="1.1" xmlns="http://www.w3.org/2000/svg" xmlns:xlink="http://www.w3.org/1999/xlink" xml:space="preserve" xmlns:serif="http://www.serif.com/" style="fill-rule:evenodd;clip-rule:evenodd;stroke-linejoin:round;stroke-miterlimit:2;"><g><rect x="112.368" y="203.536" width="372.102" height="275.035" style="fill:#fff;"/><path d="M33.333,65.712l0,401.91c0,8.587 3.411,16.823 9.484,22.895c6.072,6.072 14.308,9.483 22.895,9.483l401.91,0c8.587,0 16.823,-3.411 22.895,-9.483c6.072,-6.072 9.483,-14.308 9.483,-22.895l0,-401.91c0,-8.587 -3.411,-16.823 -9.483,-22.895c-6.072,-6.073 -14.308,-9.484 -22.895,-9.484l-401.91,0c-8.587,0 -16.823,3.411 -22.895,9.484c-6.073,6.072 -9.484,14.308 -9.484,22.895Zm376.059,182.288c11.176,2.594 21.337,8.441 29.195,16.8c4.326,4.504 8.088,9.519 11.2,14.933c0,0.598 -20.16,14.225 -32.443,21.841c-0.448,0.298 -2.24,-1.643 -4.218,-4.592c-4.553,-7.857 -12.842,-12.841 -21.915,-13.179c-14.149,-0.971 -23.259,6.458 -23.184,18.667c-0.117,3.039 0.579,6.055 2.016,8.736c3.099,6.458 8.885,10.304 27.029,18.144c33.414,14.373 47.712,23.856 56.598,37.333c9.93,14.933 12.133,39.051 5.413,56.896c-7.467,19.413 -25.76,32.592 -51.632,36.96c-11.816,1.353 -23.756,1.228 -35.541,-0.373c-18.061,-2.978 -34.704,-11.653 -47.488,-24.752c-4.294,-4.742 -12.656,-17.099 -12.134,-17.995c1.363,-1.011 2.798,-1.923 4.294,-2.725l17.285,-9.558l13.403,-7.765l2.8,4.144c4.725,6.76 10.739,12.519 17.696,16.949c14.933,7.84 35.317,6.758 45.397,-2.314c6.956,-6.833 8.045,-17.764 2.576,-25.835c-3.733,-5.189 -11.2,-9.557 -32.069,-18.667c-24.08,-10.378 -34.459,-16.8 -43.942,-27.029c-5.919,-6.75 -10.291,-14.715 -12.805,-23.333c-1.876,-9.848 -2.153,-19.932 -0.821,-29.867c4.965,-23.259 22.4,-39.499 47.861,-44.315c11.792,-1.459 23.735,-1.132 35.429,0.971l-0,-0.075Zm-109.536,19.563l-0,19.114l-60.592,0l-0,172.593l-42.971,-0l0,-172.63l-60.741,-0l-0,-18.667c-0.189,-6.436 -0.04,-12.88 0.448,-19.301c0.299,-0.336 37.333,-0.336 82.133,-0.336l81.499,-0l0.224,19.227Z" style="fill:url(#_Linear1);fill-rule:nonzero;"/></g><defs><linearGradient id="_Linear1" x1="0" y1="0" x2="1" y2="0" gradientUnits="userSpaceOnUse" gradientTransform="matrix(466.667,0,0,466.667,33.3333,266.667)"><stop offset="0" style="stop-color:#358ef1;stop-opacity:1"/><stop offset="1" style="stop-color:#3178c6;stop-opacity:1"/></linearGradient></defs></svg>