<?xml version="1.0" encoding="UTF-8" standalone="no"?><!DOCTYPE svg PUBLIC "-//W3C//DTD SVG 1.1//EN" "http://www.w3.org/Graphics/SVG/1.1/DTD/svg11.dtd"><svg width="100%" height="100%" viewBox="0 0 534 534" version="1.1" xmlns="http://www.w3.org/2000/svg" xmlns:xlink="http://www.w3.org/1999/xlink" xml:space="preserve" xmlns:serif="http://www.serif.com/" style="fill-rule:evenodd;clip-rule:evenodd;stroke-linejoin:round;stroke-miterlimit:2;"><rect x="94.458" y="195.833" width="415.292" height="306.958" style="fill:#fff;fill-rule:nonzero;"/><path d="M6.25,42.012c0,71.524 0,377.035 0,448.56c0,9.584 3.807,18.775 10.584,25.552c6.777,6.777 15.969,10.584 25.553,10.584c95.391,0 353.168,0 448.56,0c9.584,0 18.775,-3.807 25.552,-10.584c6.777,-6.777 10.584,-15.968 10.584,-25.552c0,-95.392 0,-353.169 0,-448.56c0,-9.584 -3.807,-18.776 -10.584,-25.553c-6.777,-6.777 -15.968,-10.584 -25.552,-10.584c-95.392,-0 -353.169,-0 -448.56,-0c-9.584,-0 -18.776,3.807 -25.553,10.584c-6.777,6.777 -10.584,15.969 -10.584,25.553Zm419.708,203.446c12.473,2.895 23.814,9.421 32.584,18.75c4.828,5.027 9.026,10.624 12.5,16.667c-0,0.667 -22.5,15.875 -36.209,24.375c-0.5,0.333 -2.5,-1.833 -4.708,-5.125c-5.081,-8.768 -14.332,-14.331 -24.458,-14.708c-15.792,-1.084 -25.959,7.208 -25.875,20.833c-0.131,3.392 0.646,6.758 2.25,9.75c3.458,7.208 9.916,11.5 30.166,20.25c37.292,16.042 53.25,26.625 63.167,41.667c11.083,16.666 13.542,43.583 6.042,63.5c-8.334,21.666 -28.75,36.375 -57.625,41.25c-13.188,1.51 -26.514,1.37 -39.667,-0.417c-20.157,-3.323 -38.732,-13.005 -53,-27.625c-4.792,-5.292 -14.125,-19.083 -13.542,-20.083c1.521,-1.129 3.123,-2.146 4.792,-3.042l19.292,-10.667l14.958,-8.666l3.125,4.625c5.274,7.544 11.986,13.972 19.75,18.916c16.667,8.75 39.417,7.542 50.667,-2.583c7.763,-7.626 8.979,-19.825 2.875,-28.833c-4.167,-5.792 -12.5,-10.667 -35.792,-20.834c-26.875,-11.583 -38.458,-18.75 -49.042,-30.166c-6.606,-7.534 -11.485,-16.423 -14.291,-26.042c-2.094,-10.99 -2.403,-22.245 -0.917,-33.333c5.542,-25.959 25,-44.084 53.417,-49.459c13.16,-1.628 26.49,-1.263 39.541,1.084l0,-0.084Zm-122.25,21.834l0,21.333l-67.625,-0l0,192.625l-47.958,0l-0,-192.667l-67.792,0l0,-20.833c-0.211,-7.184 -0.044,-14.375 0.5,-21.542c0.334,-0.375 41.667,-0.375 91.667,-0.375l90.958,0l0.25,21.459Z" style="fill:url(#_Linear1);fill-rule:nonzero;"/><defs><linearGradient id="_Linear1" x1="0" y1="0" x2="1" y2="0" gradientUnits="userSpaceOnUse" gradientTransform="matrix(520.833,0,0,520.833,6.25,266.292)"><stop offset="0" style="stop-color:#358ef1;stop-opacity:1"/><stop offset="1" style="stop-color:#3178c6;stop-opacity:1"/></linearGradient></defs></svg>