<?xml version="1.0" encoding="utf-8"?>
<!-- Generator: Adobe Illustrator 27.7.0, SVG Export Plug-In . SVG Version: 6.00 Build 0)  -->
<svg version="1.1" id="Layer_1" xmlns:serif="http://www.serif.com/"
	 xmlns="http://www.w3.org/2000/svg" xmlns:xlink="http://www.w3.org/1999/xlink" x="0px" y="0px" viewBox="0 0 512 512"
	 style="enable-background:new 0 0 512 512;" xml:space="preserve">
<style type="text/css">
	.st0{fill-rule:evenodd;clip-rule:evenodd;fill:#FFFFFF;}
	.st1{fill:url(#SVGID_1_);}
</style>
<g>
	<rect x="116.4" y="198.7" class="st0" width="336" height="248.3"/>
	
		<linearGradient id="SVGID_1_" gradientUnits="userSpaceOnUse" x1="2.914345e-02" y1="512" x2="0.9709" y2="512" gradientTransform="matrix(447.441 0 0 -447.441 31.96 229345.4844)">
		<stop  offset="0" style="stop-color:#358EF1"/>
		<stop  offset="1" style="stop-color:#3178C6"/>
	</linearGradient>
	<path class="st1" d="M45,74.2v362.9c0,7.8,3.1,15.2,8.6,20.7c5.5,5.5,12.9,8.6,20.7,8.6h362.9c7.8,0,15.2-3.1,20.7-8.6
		c5.5-5.5,8.6-12.9,8.6-20.7V74.2c0-7.8-3.1-15.2-8.6-20.7c-5.5-5.5-12.9-8.6-20.7-8.6H74.2c-7.8,0-15.2,3.1-20.7,8.6
		C48.1,59,45,66.5,45,74.2z M384.5,238.8c10.1,2.3,19.3,7.6,26.4,15.2c3.9,4.1,7.3,8.6,10.1,13.5c0,0.5-18.2,12.8-29.3,19.7
		c-0.4,0.3-2-1.5-3.8-4.1c-4.1-7.1-11.6-11.6-19.8-11.9c-12.8-0.9-21,5.8-20.9,16.9c-0.1,2.7,0.5,5.5,1.8,7.9
		c2.8,5.8,8,9.3,24.4,16.4c30.2,13,43.1,21.5,51.1,33.7c9,13.5,11,35.3,4.9,51.4c-6.7,17.5-23.3,29.4-46.6,33.4
		c-10.7,1.2-21.4,1.1-32.1-0.3c-16.3-2.7-31.3-10.5-42.9-22.3c-3.9-4.3-11.4-15.4-11-16.2c1.2-0.9,2.5-1.7,3.9-2.5l15.6-8.6l12.1-7
		l2.5,3.7c4.3,6.1,9.7,11.3,16,15.3c13.5,7.1,31.9,6.1,41-2.1c6.3-6.2,7.3-16,2.3-23.3c-3.4-4.7-10.1-8.6-29-16.9
		c-21.7-9.4-31.1-15.2-39.7-24.4c-5.3-6.1-9.3-13.3-11.6-21.1c-1.7-8.9-1.9-18-0.7-27c4.5-21,20.2-35.7,43.2-40
		C363.2,236.7,374,237,384.5,238.8L384.5,238.8L384.5,238.8z M285.6,256.5v17.3h-54.7v155.8h-38.8V273.7h-54.8v-16.9
		c-0.2-5.8,0-11.6,0.4-17.4c0.3-0.3,33.7-0.3,74.2-0.3h73.6L285.6,256.5L285.6,256.5z"/>
</g>
</svg>
