<?xml version="1.0" encoding="utf-8"?>
<!-- Generator: Adobe Illustrator 27.3.1, SVG Export Plug-In . SVG Version: 6.00 Build 0)  -->
<svg version="1.1" id="Layer_1" xmlns="http://www.w3.org/2000/svg" xmlns:xlink="http://www.w3.org/1999/xlink" x="0px" y="0px"
	 viewBox="0 0 100 100" style="enable-background:new 0 0 100 100;" xml:space="preserve">
<style type="text/css">
	.st0{fill:none;}
	.st1{fill:#D9D9D9;}
	.st2{fill:#E6E6E6;}
	.st3{fill:#FFFFFF;}
	.st4{opacity:0.25;}
	.st5{opacity:0.25;fill:none;stroke:#000000;stroke-miterlimit:10;enable-background:new    ;}
	
		.st6{clip-path:url(#SVGID_00000018946186898744400130000010293451881034118077_);fill:none;stroke:#F2D488;stroke-width:4;stroke-linecap:round;stroke-linejoin:round;stroke-miterlimit:10;}
	.st7{clip-path:url(#SVGID_00000018946186898744400130000010293451881034118077_);}
	
		.st8{clip-path:url(#SVGID_00000078027110473517198170000005445511367114371506_);fill:none;stroke:#FFFFFF;stroke-width:4;stroke-linecap:round;stroke-linejoin:round;stroke-miterlimit:10;}
	.st9{fill:none;stroke:#F2D488;stroke-width:4;stroke-linecap:round;stroke-linejoin:round;stroke-miterlimit:10;}
</style>
<g>
	<path class="st0" d="M53.8,53.2H36.1l-3.4,2.6 M87.8,53.2c-2.6,0-5.6,0-8.9,0c-3,0-6.8,0-10.4,0 M16.3,64.5V52.8v-0.5V40.8l0,0v-14
		v-0.2v-5.5v-13H65h0.6h2.6H69h20.3v20.1v25.1v27.8 M16.3,81.1V66.7v-0.3"/>
	<g>
		<g>
			<g>
				<path class="st1" d="M87.7,20.3v0.1c0-2.7-3-4.2-5.1-2.6L69.3,27.9l-0.9,0.7L45,46.5l-8.8,6.7l-2.7,1.5L30,53.2
					c-5.9,0-9.6,0-9.6,0l0,0c-0.3,0.9-1.9,5.6-4,11.3v1.9c-0.2-0.1-0.4-0.2-0.6-0.3c-0.1-0.1-0.2-0.2-0.3-0.2l-4.2-4
					c-0.3-0.3-0.6-0.7-0.8-1.1v-0.1C10,59.5,10.3,58,11.3,57l5.1-4.7l6.3-5.7l0,0l10.1-9.2l0.1-0.1l13.5-12.4L63.6,9
					c0.1-0.1,0.1-0.1,0.2-0.2c0.1-0.1,0.2-0.1,0.3-0.2c0.1-0.1,0.3-0.2,0.4-0.3C64.7,8.2,64.8,8.1,65,8c0.1-0.1,0.3-0.1,0.5-0.2
					c0.2,0,0.3-0.1,0.5-0.1s0.3-0.1,0.5-0.1s0.3,0,0.5,0s0.4,0,0.5,0c0.2,0,0.3,0,0.5,0.1c0.3,0.1,0.6,0.2,1,0.3
					c0.1,0,0.1,0,0.2,0.1l16,7.8c1.4,0.6,2.4,1.8,2.5,3.3l0,0C87.7,19.6,87.7,19.9,87.7,20.3z"/>
				<g>
					<path class="st2" d="M53.8,53.2H36.1l-2.9,1.1L30,53.2l-7.4-6.7l-6.3-5.8l-5-4.6L11.2,36c-1.4-1.3-1.4-3.6,0-4.9l4.2-4
						c0.3-0.2,0.6-0.4,0.9-0.6c1-0.5,2.3-0.3,3.2,0.5l13.3,10.2l0.2,0.1l12,9.2L53.8,53.2z"/>
				</g>
				<g>
					<path class="st3" d="M87.8,53.2c-5.2,0-12,0-19.3,0V11.1c0-1.9-1.8-3.2-3.4-2.8c-0.4,0.1-0.9,0.3-1.2,0.6
						c0.1-0.1,0.2-0.1,0.3-0.2C64.4,8.4,64.7,8.2,65,8c0.1-0.1,0.3-0.1,0.5-0.2c0.2,0,0.3-0.1,0.5-0.1s0.3-0.1,0.5-0.1s0.3,0,0.5,0
						s0.4,0,0.5,0c0.2,0,0.3,0,0.5,0.1c0.3,0.1,0.6,0.2,1,0.3c0.1,0,0.1,0,0.2,0.1l16,7.7c1.7,0.8,2.8,2.6,2.8,4.4L87.8,53.2z"/>
					<path class="st3" d="M87.8,53.2L87.8,53.2z"/>
				</g>
				<g class="st4">
					<path class="st5" d="M68.5,28.7L45.2,46.5l8.8,6.7 M68.5,53.2c7.3,0,14.1,0,19.3,0V20.4c0-0.4,0-0.8-0.1-1.2l0,0
						c-0.3-1.4-1.2-2.6-2.5-3.2l-16-7.7c-0.3-0.1-0.6-0.2-0.9-0.3c-0.9-0.2-1.8-0.2-2.6,0c-0.2,0-0.4,0.1-0.5,0.2
						c-0.3,0.1-0.7,0.3-1,0.5c-0.3,0.1-0.4,0.3-0.6,0.5L46.4,25L33,37.4l-0.1,0.1l-0.2-0.1L19.6,27.2c-1-0.7-2.3-0.8-3.3-0.4
						c-0.3,0.1-0.5,0.3-0.8,0.5l-4.2,4c-1.4,1.2-1.4,3.4-0.1,4.7l0.1,0.1l5,4.6l6.3,5.8l0.2,0.2l-6.5,6l-5,4.6
						c-0.9,0.8-1.2,2.1-0.9,3.3v0.1c0.2,0.6,0.5,1.1,0.9,1.5l4.2,4l0.1,0.1c0.2,0.2,0.4,0.3,0.7,0.4 M36.1,53.2h17.7"/>
				</g>
			</g>
		</g>
	</g>
	<g>
		<g>
			<defs>
				<path id="SVGID_1_" d="M0.1,17.1v80.3h101.4V17.1H0.1z M88.3,31c-0.2,0-0.3-0.1-0.5-0.1l0,0c-0.1,0-0.2,0-0.2,0h-19v-1.6l-2,1.6
					H49.5c-0.8,0-1.6-0.3-2.1-0.9L44,26.6l4.4-4.1l2.3,2.3h37c0.1,0,0.2,0,0.3,0h0.1c0.1,0,0.2,0,0.2,0S88.3,31,88.3,31z"/>
			</defs>
			<clipPath id="SVGID_00000170257439801812369620000017739168797050066051_">
				<use xlink:href="#SVGID_1_"  style="overflow:visible;"/>
			</clipPath>
			
				<path style="clip-path:url(#SVGID_00000170257439801812369620000017739168797050066051_);fill:none;stroke:#F2D488;stroke-width:4;stroke-linecap:round;stroke-linejoin:round;stroke-miterlimit:10;" d="
				M16.3,64.5c-0.2,0.5-0.4,1-0.6,1.6c0,0.1,0,0.2-0.1,0.2C11.7,77,6.7,90.4,6.7,90.4 M92.3,30c-0.9-0.9-1.9-1.6-3.1-1.9
				c-0.4-0.1-0.9-0.2-1.3-0.2l0,0h-0.1c-0.1,0-0.1,0-0.2,0H69.3h-0.9h-19l-3-2.9l-0.1-0.1l-1.7-1.7c-0.6-0.6-1.3-1.1-2.2-1.5
				c-0.8-0.4-1.7-0.6-2.7-0.6H16.3h-5.4c-0.7,0-1.3,0.1-1.9,0.3c-1,0.3-1.9,0.9-2.8,1.8c-1.4,1.4-2.1,3-2.1,4.7v58.7
				c0,1.7,0.7,3.3,2.1,4.7s2.9,2.1,4.7,2.1H82c1.9,0,3.4-0.4,4.6-1.2c1.2-0.8,2-2.2,2.5-4l8.3-34.8c0,0,0-0.1,0-0.2
				c-1,0-3.9,0-8.2,0c-0.4,0-0.9,0-1.3,0h-0.1h-3.1c-1.1,0-3.2,0-5.8,0c-3,0-6.8,0-10.4,0c-6.2,0-12.2,0-14.5,0c-0.1,0-0.1,0-0.2,0
				H36.1c-2.2,0-4.3,0-6.2,0"/>
			<g style="clip-path:url(#SVGID_00000170257439801812369620000017739168797050066051_);">
				<g>
					<g>
						<defs>
							<path id="SVGID_00000121972214432579560060000007166296027407200659_" d="M88.3,31v-6c-0.1,0-0.2,0-0.2,0H88
								c-0.1,0-0.2,0-0.3,0h-37l-2.3-2.3L44,26.8l3.4,3.4c0.6,0.6,1.3,0.9,2.1,0.9h17.1l2-1.6v1.6h19c0.1,0,0.2,0,0.2,0l0,0
								C88,30.9,88.1,31,88.3,31z M68.5,28.7L68.5,28.7v-0.1V28.7z"/>
						</defs>
						<clipPath id="SVGID_00000040554576925911456350000001130461484654802051_">
							<use xlink:href="#SVGID_00000121972214432579560060000007166296027407200659_"  style="overflow:visible;"/>
						</clipPath>
						
							<path style="clip-path:url(#SVGID_00000040554576925911456350000001130461484654802051_);fill:none;stroke:#FFFFFF;stroke-width:4;stroke-linecap:round;stroke-linejoin:round;stroke-miterlimit:10;" d="
							M16.3,64.5c-0.2,0.5-0.4,1-0.6,1.6c0,0.1,0,0.2-0.1,0.2C11.7,77,6.7,90.4,6.7,90.4 M92.3,30c-0.9-0.9-1.9-1.6-3.1-1.9
							c-0.4-0.1-0.9-0.2-1.3-0.2l0,0h-0.1c-0.1,0-0.1,0-0.2,0H69.3h-0.9h-19l-3-2.9l-0.1-0.1l-1.7-1.7c-0.6-0.6-1.3-1.1-2.2-1.5
							c-0.8-0.4-1.7-0.6-2.7-0.6H16.3h-5.4c-0.7,0-1.3,0.1-1.9,0.3c-1,0.3-1.9,0.9-2.8,1.8c-1.4,1.4-2.1,3-2.1,4.7v58.7
							c0,1.7,0.7,3.3,2.1,4.7s2.9,2.1,4.7,2.1H82c1.9,0,3.4-0.4,4.6-1.2c1.2-0.8,2-2.2,2.5-4l8.3-34.8c0,0,0-0.1,0-0.2
							c-1,0-3.9,0-8.2,0c-0.4,0-0.9,0-1.3,0h-0.1h-3.1c-1.1,0-3.2,0-5.8,0c-3,0-6.8,0-10.4,0c-6.2,0-12.2,0-14.5,0
							c-0.1,0-0.1,0-0.2,0H36.1c-2.2,0-4.3,0-6.2,0"/>
					</g>
				</g>
			</g>
		</g>
		<path class="st9" d="M16.3,64.5c2.1-5.7,3.8-10.4,4-11.3l0,0c0,0,3.8,0,9.6,0"/>
	</g>
</g>
</svg>
