<?xml version="1.0" encoding="utf-8"?>
<!-- Generator: Adobe Illustrator 27.3.1, SVG Export Plug-In . SVG Version: 6.00 Build 0)  -->
<svg version="1.1" id="Layer_1" xmlns="http://www.w3.org/2000/svg" xmlns:xlink="http://www.w3.org/1999/xlink" x="0px" y="0px"
	 viewBox="0 0 100 100" style="enable-background:new 0 0 100 100;" xml:space="preserve">
<style type="text/css">
	.st0{clip-path:url(#SVGID_00000122704895288990772540000004787817249779956099_);}
	.st1{fill:#D9D9D9;}
	.st2{fill:#E6E6E6;}
	.st3{fill:#FFFFFF;}
	.st4{opacity:0.25;}
	.st5{opacity:0.25;fill:none;stroke:#000000;stroke-miterlimit:10;enable-background:new    ;}
	.st6{fill:#F2D488;}
</style>
<g>
	<g>
		<g>
			<g>
				<defs>
					<rect id="SVGID_1_" x="18.6" y="21.2" width="64.1" height="64.1"/>
				</defs>
				<clipPath id="SVGID_00000004523412228397618030000013954778540211086728_">
					<use xlink:href="#SVGID_1_"  style="overflow:visible;"/>
				</clipPath>
				<g style="clip-path:url(#SVGID_00000004523412228397618030000013954778540211086728_);">
					<g>
						<g>
							<path class="st1" d="M80.5,28.1l-13.2-6.4c-1.5-0.7-3.4-0.4-4.5,0.7L19.4,62c-1.2,1.1-1.2,3,0,4l3.5,3.3c1,0.8,2.4,1,3.4,0.1
								l52-39.7c1.8-1.4,4.2-0.1,4.2,2.1v-0.1C82.8,30.1,81.8,28.7,80.5,28.1z"/>
							<g>
								<path class="st2" d="M80.5,78.5L67.3,85c-1.5,0.7-3.4,0.4-4.5-0.7L19.4,44.7c-1.2-1.1-1.2-3,0-4l3.5-3.3
									c1-0.8,2.4-1,3.4-0.1l52,39.7c1.8,1.4,4.2,0.1,4.2-2.1V75C82.8,76.5,81.8,77.9,80.5,78.5z"/>
							</g>
							<g>
								<path class="st3" d="M67.3,85c-1.5,0.7-3.4,0.4-4.5-0.7c1.5,1.5,4,0.4,4-1.7V24.1c0-2.1-2.5-3.2-4-1.7
									c1.2-1.2,3.1-1.5,4.5-0.7L80.5,28c1.4,0.6,2.3,2.1,2.3,3.6v43.3c0,1.6-0.8,3-2.3,3.6L67.3,85z"/>
							</g>
							<g class="st4">
								<path class="st5" d="M64.2,85.1c1.1,0.4,2.1,0.4,3.2-0.1l13.2-6.3c1.4-0.6,2.2-2.1,2.2-3.6V31.8c0-1.6-0.8-3-2.2-3.6
									l-13.2-6.3c-1.4-0.6-3-0.5-4.1,0.3c-0.2,0.1-0.3,0.2-0.5,0.4L37.5,45.8l-11-8.4c-1.1-0.7-2.4-0.7-3.4,0.1l-3.5,3.3
									c-1.2,1.1-1.2,3,0,4l9.5,8.8l-9.5,8.8c-1.2,1.1-1.2,3,0,4l3.5,3.3c1,0.8,2.4,1,3.4,0.1l11-8.4l25.2,23.2
									C63.1,84.6,63.6,84.9,64.2,85.1z M66.7,38.6L47.5,53.3L66.7,68V38.6z"/>
							</g>
						</g>
					</g>
				</g>
			</g>
		</g>
	</g>
</g>
<g>
	<g>
		<path class="st6" d="M39.3,13.1c0.3,0,0.9,0.1,1.4,0.3c0.5,0.3,0.9,0.5,1.1,0.8l5.2,5.3l1.2,1.2h1.7h42.4c0.9,0,1.6,0.3,2.3,1l0,0
			l0,0c0.7,0.7,1.1,1.5,1.1,2.4v58c0,0.9-0.3,1.6-1,2.3c-1.2,1.1-1.9,1.2-2.5,1.2H7.6c-1,0-1.6-0.3-2.3-1l0,0l0,0
			c-0.7-0.7-1-1.5-1-2.4V16.6c0-0.6,0.1-1.4,1.1-2.4c1-1,1.7-1.1,2.3-1.1H39.3 M39.3,9.1H7.6c-2,0-3.7,0.8-5.2,2.3
			c-1.5,1.6-2.2,3.3-2.2,5.2v65.6c0,1.9,0.7,3.7,2.2,5.2c1.5,1.6,3.2,2.3,5.2,2.3h84.7c1.9,0,3.6-0.8,5.2-2.3
			c1.6-1.5,2.3-3.3,2.3-5.2v-58c0-1.9-0.8-3.7-2.3-5.2c-1.5-1.6-3.3-2.3-5.2-2.3H49.9l-5.2-5.3c-0.7-0.7-1.5-1.2-2.4-1.7
			C41.3,9.4,40.3,9.1,39.3,9.1L39.3,9.1z"/>
	</g>
</g>
</svg>
