<?xml version="1.0" encoding="UTF-8" standalone="no"?><!DOCTYPE svg PUBLIC "-//W3C//DTD SVG 1.1//EN" "http://www.w3.org/Graphics/SVG/1.1/DTD/svg11.dtd"><svg width="100%" height="100%" viewBox="0 0 200 200" version="1.1" xmlns="http://www.w3.org/2000/svg" xmlns:xlink="http://www.w3.org/1999/xlink" xml:space="preserve" xmlns:serif="http://www.serif.com/" style="fill-rule:evenodd;clip-rule:evenodd;stroke-linejoin:round;stroke-miterlimit:2;"><path d="M25,174.583l0,-2.916c0,-2.917 2.083,-5 4.583,-5l90.417,-0c2.5,-0 4.583,2.083 4.583,4.583l0,2.917c0,2.5 -2.083,4.583 -4.583,4.583l-90.417,0c-2.5,0.417 -4.583,-1.667 -4.583,-4.167Zm42.917,-42.916l-39.584,-39.584c-1.666,-1.666 -1.666,-5 0,-6.666l7.917,-8.334c1.667,-2.083 5,-2.083 6.667,0l40,39.584c1.666,1.666 2.083,5 -0,6.666l-8.334,8.334c-1.666,1.666 -5,1.666 -6.666,-0Zm52.916,-52.917l-39.583,-40c-1.667,-2.083 -1.667,-5 0,-6.667l8.333,-7.916c1.667,-1.667 5,-1.667 6.667,-0l39.583,39.583c1.667,1.667 1.667,5 0,6.667l-8.333,8.333c-1.667,1.667 -5,1.667 -6.667,0Zm42.084,88.75l-105,-105c-1.667,-1.667 -1.667,-5 -0,-6.667l2.083,-2.083c1.667,-1.667 5,-1.667 6.667,0l105,105c1.666,1.667 1.666,5 -0,6.667l-2.084,2.083c-1.666,1.667 -5,1.667 -6.666,0Z" style="fill:#3d3d3d;fill-rule:nonzero;"/></svg>