<?xml version="1.0" encoding="UTF-8" standalone="no"?><!DOCTYPE svg PUBLIC "-//W3C//DTD SVG 1.1//EN" "http://www.w3.org/Graphics/SVG/1.1/DTD/svg11.dtd"><svg width="100%" height="100%" viewBox="0 0 534 534" version="1.1" xmlns="http://www.w3.org/2000/svg" xmlns:xlink="http://www.w3.org/1999/xlink" xml:space="preserve" xmlns:serif="http://www.serif.com/" style="fill-rule:evenodd;clip-rule:evenodd;stroke-linejoin:round;stroke-miterlimit:2;"><g><path d="M203.756,392.175l1.25,3.074l0.845,-0.22c0,-0 -1.358,0.803 -2.379,1.772c-0.343,0.324 -0.796,0.978 -0.995,1.274c0.226,0.198 0.684,0.577 1.12,0.812c2.446,1.314 6.769,2.394 13.889,3.179c37.367,4.107 56.463,3.512 97.631,-3.974c0.843,-0.153 1.713,0.006 2.448,0.448c-0,-0 10.717,6.437 25.651,12.023c1.358,0.508 2.267,1.795 2.291,3.245c0.024,1.449 -0.842,2.766 -2.183,3.318c-46.46,19.148 -98.911,18.977 -131.565,11.478c-14.665,-3.367 -25.432,-8.346 -30.35,-13.551c-2.296,-2.43 -3.486,-4.99 -3.676,-7.503c-0.2,-2.655 0.66,-5.368 2.953,-7.986c3.393,-3.874 10.574,-7.806 22.533,-11.02c-0.288,0.077 -0.558,0.188 -0.808,0.328l1.299,3.192c0.141,-0.039 0.282,-0.077 0.424,-0.115c0,-0 -0.142,0.079 -0.378,0.226Zm-8.981,-47.529c-0,0 -2.691,1.898 -4.269,4.351c-0.465,0.722 -0.933,1.473 -0.795,2.254c0.139,0.791 0.949,1.329 2.26,1.977c2.433,1.204 6.23,2.117 11.882,2.68c40.019,3.975 71.616,4.295 126.318,-5.833c1.127,-0.209 2.286,0.144 3.106,0.945c0,0 7.099,6.897 18.256,10.679c1.463,0.496 2.434,1.887 2.393,3.432c-0.041,1.545 -1.082,2.883 -2.57,3.302c-55.827,15.707 -114.768,16.6 -150.775,10.39c-16.203,-2.794 -27.9,-7.192 -33.105,-12.102c-3.104,-2.929 -4.292,-6.147 -3.8,-9.386c0.439,-2.885 2.367,-6.035 6.43,-9.073c4.333,-3.239 11.368,-6.596 21.551,-9.847c1.655,-0.529 3.448,0.227 4.226,1.781c0.777,1.554 0.307,3.442 -1.108,4.45Z" style="fill:#0074bd;fill-rule:nonzero;"/><path d="M373.366,128.656c0.649,-0.173 1.35,-0.083 1.944,0.266c0.78,0.457 1.259,1.294 1.259,2.198c-0,0.002 0.05,1.59 -1.412,2.284c-36.945,20.619 -58.178,35.918 -69.021,48.684c-6.764,7.963 -9.336,14.799 -8.981,21.352c0.298,5.507 2.62,10.76 5.979,16.235c3.567,5.814 8.3,11.839 13.259,18.541c14.338,19.425 6.09,36.915 -5.939,49.524c-11.549,12.105 -26.54,19.548 -26.54,19.548c-1.169,0.58 -2.588,0.183 -3.287,-0.92c-0.698,-1.103 -0.45,-2.556 0.575,-3.365c0,0 26.959,-21.128 5.717,-44.648c-18.217,-20.195 -23.567,-37.983 -21.206,-53.308c2.366,-15.351 12.544,-28.374 25.937,-39.036c26.038,-20.728 64.184,-32.557 77.2,-36.164c2.616,-0.724 4.516,-1.191 4.516,-1.191Z" style="fill:#ea2d2e;fill-rule:nonzero;"/><path d="M124.835,443.914c0.474,0.352 1.455,1.031 2.506,1.471c18.67,7.813 56.772,11.647 99.158,12.572c64.009,1.397 137.757,-3.98 169.851,-13.332c6.463,-1.886 10.571,-3.843 13.053,-5.818c1.623,-1.291 2.397,-2.423 2.448,-3.528c0.094,-2.037 -1.865,-3.449 -1.865,-3.449c-1.387,-1.1 -1.743,-3.058 -0.833,-4.576c0.91,-1.518 2.805,-2.126 4.428,-1.422c7.593,3.296 10.898,7.493 11.268,11.378c0.254,2.665 -0.705,5.486 -3.173,8.256c-2.76,3.1 -7.674,6.324 -14.607,9.383c-41.347,18.243 -158.739,33.365 -292.756,12.467c-10.773,-1.682 -17.662,-4.081 -21.562,-6.718c-3.566,-2.412 -5.065,-5.192 -5.279,-7.933c-0.311,-3.997 2.532,-8.616 8.199,-12.757c11.954,-8.733 36.68,-16.785 54.479,-18.066c8.36,-0.602 15.28,0.417 19.14,3.031c1.318,0.893 1.875,2.559 1.358,4.065c-0.518,1.507 -1.98,2.479 -3.569,2.374c-0,-0 -5.622,-0.337 -15.473,1.714c-4.816,1 -14.884,3.86 -21.702,7.334c-1.542,0.786 -2.907,1.595 -3.963,2.431c-0.398,0.316 -0.838,0.807 -1.106,1.123Zm42.628,-134.377c0.451,0.276 1.068,0.621 1.676,0.858c2.828,1.101 7.223,2.053 13.544,2.866c23.467,3.02 70.228,2.302 113.814,-1.215c35.684,-2.884 71.494,-9.044 71.494,-9.044c1.771,-0.305 3.487,0.771 3.985,2.498c0.499,1.726 -0.381,3.551 -2.043,4.237c0,-0 -12.285,5.062 -21.182,10.898c-0.328,0.215 -0.689,0.374 -1.069,0.471c-49.593,12.549 -125.049,14.819 -173.203,10.345c-21.276,-1.977 -37.34,-5.42 -43.96,-9.652c-3.493,-2.233 -4.899,-4.924 -4.803,-7.485c0.062,-1.636 0.724,-3.395 2.316,-5.146c1.584,-1.743 4.309,-3.638 8.396,-5.539c42.282,-19.673 76.695,-17.37 76.695,-17.37c1.747,0.114 3.146,1.492 3.286,3.237c0.139,1.746 -1.023,3.329 -2.73,3.719c0,0 -30.507,6.916 -43.082,14.01c-1.189,0.67 -2.432,1.697 -3.134,2.312Zm199.19,60.609c34.289,-17.136 48.856,-33.64 51.819,-47.358c4.054,-18.774 -15.198,-30.892 -30.343,-27.856c-6.647,1.332 -9.633,2.472 -9.633,2.472c-1.432,0.557 -3.06,0.122 -4.024,-1.074c-0.964,-1.197 -1.042,-2.88 -0.193,-4.16c0,-0 3.23,-4.944 9.437,-7.056l0.007,-0.002c37.366,-12.633 68.958,13.12 60.594,42.166c-5.308,18.434 -27.414,39.163 -77.009,51.706c-1.055,0.267 -2.173,0.032 -3.031,-0.636c-0.858,-0.668 -1.36,-1.695 -1.36,-2.783c-0,-0.039 -0.182,-1.377 1.174,-2.628c0.1,-0.092 0.688,-0.495 0.854,-0.92c0.318,-0.814 0.927,-1.481 1.708,-1.871Z" style="fill:#0074bd;fill-rule:nonzero;"/><path d="M316.11,35.664c0,-0 13.138,12.541 13.473,34.775c0.324,21.518 -11.396,52.572 -60.657,89.977c-26.223,19.923 -36.394,36.697 -37.531,51.872c-1.13,15.084 6.655,28.372 15.668,41.218c8.115,11.566 17.267,22.763 22.61,34.381c0.501,1.09 0.174,2.383 -0.787,3.104c-0.96,0.72 -2.293,0.673 -3.2,-0.114c-22.794,-19.782 -42.523,-38.408 -53.777,-56.114c-11.771,-18.518 -14.44,-36.113 -2.71,-53.065c16.421,-23.718 47.328,-41.388 71.668,-62.591c23.453,-20.431 40.694,-44.259 31.011,-80.957c-0.291,-1.105 0.188,-2.269 1.174,-2.848c0.985,-0.579 2.235,-0.431 3.058,0.362Z" style="fill:#ea2d2e;fill-rule:nonzero;"/><path d="M442.31,452.944l3.32,0.785c0.132,-0.326 0.217,-0.676 0.246,-1.043c-0.437,5.479 -2.967,10.477 -7.384,14.953c-5.969,6.049 -15.569,11.199 -27.817,15.392c-45.544,15.59 -128.724,18.604 -189.212,14.884c-52.043,-3.219 -66.321,-11.036 -68.665,-12.523c-2.187,-1.388 -2.001,-3.224 -2.001,-3.227c0,-1.032 0.452,-2.012 1.237,-2.682c0.785,-0.67 1.824,-0.963 2.843,-0.801c53.271,8.461 143.117,9.994 215.95,-3.196c31.881,-5.769 49.309,-12.238 58.752,-17.316c7.374,-3.965 9.589,-7.258 9.589,-7.258l0.965,1.517l1.957,0.463c0.202,-0.317 0.271,-0.487 0.271,-0.487c-0.014,0.18 -0.031,0.36 -0.051,0.539Z" style="fill:#0074bd;fill-rule:nonzero;"/></g></svg>