<?xml version="1.0" encoding="utf-8"?>
<!-- Generator: Adobe Illustrator 27.3.1, SVG Export Plug-In . SVG Version: 6.00 Build 0)  -->
<svg version="1.1" id="Layer_2_00000083798332696367286100000006803172613653178001_"
	 xmlns="http://www.w3.org/2000/svg" xmlns:xlink="http://www.w3.org/1999/xlink" x="0px" y="0px" viewBox="0 0 121.4 117.7"
	 style="enable-background:new 0 0 121.4 117.7;" xml:space="preserve">
<style type="text/css">
	.st0{stroke:#000000;stroke-width:4;stroke-miterlimit:10;}
</style>
<g>
	<path class="st0" d="M36.3,89.2c0,7.7,2.5,12.5,11.9,13.5l-0.2,0.2c-13.6-0.2-17.3-3.8-17.3-15.4v-16c0-7.1-0.8-10.5-9.6-12.4v-0.2
		c8.6-1.9,9.6-5.3,9.6-12.3V29.4c0-11.1,4.7-14.3,17.3-14.6l0.2,0.2c-9.6,1.3-11.9,5.5-11.9,13.6v17.1c0,7.2-1.1,11.4-10.1,13.2v0.2
		c9.1,1.9,10.1,6.4,10.1,13.6V89.2z"/>
	<path class="st0" d="M85.1,28.5c0-7.7-2.5-12.5-11.9-13.5l0.2-0.2C87,15,90.7,18.6,90.7,30.2v16c0,7.1,0.8,10.5,9.6,12.4v0.2
		c-8.6,1.9-9.6,5.3-9.6,12.3v17.1c0,11.1-4.7,14.3-17.3,14.6l-0.2-0.2c9.6-1.3,11.9-5.5,11.9-13.6V72c0-7.2,1.1-11.4,10.1-13.2v-0.2
		C86,56.7,85.1,52.3,85.1,45V28.5z"/>
</g>
</svg>
