<?xml version="1.0" encoding="UTF-8" standalone="no"?><!DOCTYPE svg PUBLIC "-//W3C//DTD SVG 1.1//EN" "http://www.w3.org/Graphics/SVG/1.1/DTD/svg11.dtd"><svg width="100%" height="100%" viewBox="0 0 534 534" version="1.1" xmlns="http://www.w3.org/2000/svg" xmlns:xlink="http://www.w3.org/1999/xlink" xml:space="preserve" xmlns:serif="http://www.serif.com/" style="fill-rule:evenodd;clip-rule:evenodd;stroke-linejoin:round;stroke-miterlimit:2;"><path d="M115,502.5c-9.583,0 -17.917,-3.333 -24.583,-10c-6.667,-6.667 -10.417,-14.583 -10.417,-23.75l0,-243.75c0,-9.167 3.75,-17.5 10.417,-23.75c6.666,-6.25 15,-10 24.583,-10l37.917,0c1.666,0 2.916,-1.25 2.916,-2.5l0,-51.25c0,-29.583 10.834,-54.583 32.5,-75.417c21.667,-20.833 47.5,-31.25 78.334,-31.25c30.833,0 56.666,10.417 78.333,31.25c21.667,20.834 32.5,45.834 32.5,75.417l0,51.25c0,1.667 1.25,2.5 2.917,2.5l37.916,0c9.584,0 17.917,3.333 24.584,10c6.666,6.667 10.416,14.583 10.416,23.75l0,244.167c0,9.166 -3.75,17.5 -10.416,23.75c-6.667,6.666 -15,10 -24.584,10l-303.333,-0l0,-0.417Zm27.917,-33.333l247.083,-0c15,-0 27.917,-12.084 27.917,-27.084l-0,-190c-0,-14.583 -12.5,-27.083 -27.917,-27.083l-247.083,0c-15,0 -27.917,12.083 -27.917,27.083l0,190.417c0,14.583 12.5,26.667 27.917,26.667Zm50.416,-277.5l145.834,-0c1.666,-0 2.916,-1.25 2.916,-2.5l0,-51.667c0,-20.417 -7.083,-37.5 -22.083,-51.667c-15,-14.166 -32.5,-21.25 -53.333,-21.25c-21.25,0 -38.75,7.084 -53.334,21.25c-14.583,14.167 -22.083,31.667 -22.083,51.667l0,51.25c-0.833,1.667 0.417,2.917 2.083,2.917Zm-78.333,277.5l0,-244.167l0,244.167Z" style="fill:#3f3f3f;fill-rule:nonzero;"/><ellipse cx="266.25" cy="328.333" rx="34.583" ry="33.75" style="fill:#3f3f3f;"/><rect x="254.583" y="343.75" width="23.75" height="62.083" style="fill:#3f3f3f;"/></svg>