<?xml version="1.0" encoding="utf-8"?>
<!-- Generator: Adobe Illustrator 27.7.0, SVG Export Plug-In . SVG Version: 6.00 Build 0)  -->
<svg version="1.1" id="Layer_1" xmlns:serif="http://www.serif.com/"
	 xmlns="http://www.w3.org/2000/svg" xmlns:xlink="http://www.w3.org/1999/xlink" x="0px" y="0px" viewBox="0 0 512 512"
	 style="enable-background:new 0 0 512 512;" xml:space="preserve">
<style type="text/css">
	.st0{fill:#0C344D;}
</style>
<g>
	<path class="st0" d="M276.6,328.3c-78,27.1-124.7-70.8-75.9-127c32.5-38.3,112.6-26.5,117.4,29.5h-31.6
		c-13.2-46.6-87.4-27-70.3,43.5c6.4,39.9,72.4,43.4,74.3-0.5h-33.2v-24.1h63v79.3h-20.9l-3.3-16.6
		C290.3,320.2,283.7,325.3,276.6,328.3z"/>
	<path class="st0" d="M373.9,182.7v119.5h73.2v27.3H341V182.8h32.9V182.7z"/>
</g>
<path class="st0" d="M490.5,329.8C400.2,397.7,93.4,371,97,255.9c-3.5-115.3,304.2-141.7,394.1-73.3
	C393.5,71.7,20.7,98.7,20.9,255.9C20.8,413.1,392.6,440.3,490.5,329.8z"/>
</svg>
