<?xml version="1.0" encoding="UTF-8" standalone="no"?><!DOCTYPE svg PUBLIC "-//W3C//DTD SVG 1.1//EN" "http://www.w3.org/Graphics/SVG/1.1/DTD/svg11.dtd"><svg width="100%" height="100%" viewBox="0 0 534 534" version="1.1" xmlns="http://www.w3.org/2000/svg" xmlns:xlink="http://www.w3.org/1999/xlink" xml:space="preserve" xmlns:serif="http://www.serif.com/" style="fill-rule:evenodd;clip-rule:evenodd;stroke-linejoin:round;stroke-miterlimit:2;"><g><path d="M506.674,72.699l-391.344,0c-12.363,0 -24.3,9.805 -27.284,22.168l-78.439,343.599c-2.984,12.363 4.689,22.168 17.052,22.168l391.345,-0c12.362,-0 24.299,-9.805 27.283,-22.168l78.44,-343.173c2.984,-12.362 -4.69,-22.594 -17.053,-22.594Z" style="fill:url(#_Linear1);"/><path d="M267.519,370.258l95.066,-0c11.083,-0 20.036,9.379 20.036,20.889c-0,11.51 -8.953,20.889 -20.036,20.889l-95.066,-0c-11.084,-0 -20.036,-9.379 -20.036,-20.889c0,-11.51 8.952,-20.889 20.036,-20.889Zm61.814,-92.934c-1.705,3.411 -5.116,6.821 -11.084,11.084l-176.915,127.038c-9.805,6.821 -23.447,4.263 -31.12,-5.968c-7.247,-10.232 -5.542,-24.299 3.837,-31.12l159.436,-115.528l0,-2.558l-100.18,-106.575c-8.1,-8.526 -7.248,-22.594 1.705,-31.547c9.378,-8.526 23.446,-8.526 31.546,0l120.217,127.891c7.247,8.1 7.674,19.183 2.558,27.283Z" style="fill:#2c5591;"/><path d="M324.644,273.061c-1.706,3.411 -5.116,6.821 -11.084,11.084l-176.489,127.038c-9.805,6.821 -23.447,4.263 -31.12,-5.968c-7.247,-10.232 -5.542,-24.3 3.837,-31.12l159.436,-115.528l0,-2.558l-100.18,-106.575c-8.1,-8.526 -7.248,-22.594 1.705,-31.547c9.378,-8.526 23.446,-8.526 31.546,0l120.217,127.891c7.247,7.673 7.674,18.757 2.132,27.283Zm-60.109,95.065l95.065,0c11.084,0 20.037,8.953 20.037,19.61c-0,11.084 -8.953,19.61 -20.037,19.61l-95.065,0c-11.084,0 -20.036,-8.952 -20.036,-19.61c-0,-11.084 8.952,-19.61 20.036,-19.61Z" style="fill:#fff;"/></g><defs><linearGradient id="_Linear1" x1="0" y1="0" x2="1" y2="0" gradientUnits="userSpaceOnUse" gradientTransform="matrix(295.141,262.103,-262.103,295.141,101.841,120.317)"><stop offset="0" style="stop-color:#2d4664;stop-opacity:1"/><stop offset="0.17" style="stop-color:#29405b;stop-opacity:1"/><stop offset="0.45" style="stop-color:#1e2f43;stop-opacity:1"/><stop offset="0.79" style="stop-color:#0c131b;stop-opacity:1"/><stop offset="1" style="stop-color:#000;stop-opacity:1"/></linearGradient></defs></svg>