<?xml version="1.0" encoding="utf-8"?>
<!-- Generator: Adobe Illustrator 27.3.1, SVG Export Plug-In . SVG Version: 6.00 Build 0)  -->
<svg version="1.1" id="Layer_1" xmlns="http://www.w3.org/2000/svg" xmlns:xlink="http://www.w3.org/1999/xlink" x="0px" y="0px"
	 viewBox="0 0 100 100" style="enable-background:new 0 0 100 100;" xml:space="preserve">
<style type="text/css">
	
		.st0{clip-path:url(#SVGID_00000053527460364948456890000000401765457310276487_);fill:none;stroke:#000000;stroke-width:4;stroke-linecap:round;stroke-linejoin:round;stroke-miterlimit:10;}
	.st1{fill-rule:evenodd;clip-rule:evenodd;fill:#FFFFFF;filter:url(#Adobe_OpacityMaskFilter);}
	.st2{mask:url(#mask0_00000145765993629341142430000000190588847700768940_);}
	.st3{fill:#0065A9;}
	.st4{fill:#007ACC;}
	.st5{fill:#1F9CF0;}
	.st6{opacity:0.25;}
	.st7{fill-rule:evenodd;clip-rule:evenodd;fill:url(#SVGID_00000009575161121811670070000001066337322931979692_);}
	.st8{fill-rule:evenodd;clip-rule:evenodd;fill:none;}
	
		.st9{clip-path:url(#SVGID_00000113316531338430526430000005704949025883006861_);fill:none;stroke:#000000;stroke-width:4;stroke-linecap:round;stroke-linejoin:round;stroke-miterlimit:10;}
	.st10{fill:none;stroke:#000000;stroke-width:4;stroke-linecap:square;stroke-linejoin:round;stroke-miterlimit:10;}
</style>
<g>
	<g>
		<g>
			<defs>
				<path id="SVGID_1_" d="M87.9,30.9v-3h0v-3c0,0,0,0,0,0c-0.1,0-0.2,0-0.3,0h-37l-2-2c0,0-0.1-0.1-0.1-0.1l-2.2,2l-2.2,2
					c0,0,0,0,0,0.1l3.1,3.1c0.6,0.6,1.3,0.9,2.1,0.9l17.3,0l1.2-0.9v0.9l19.6,0c0.1,0,0.2,0,0.3,0l0,0
					C87.9,30.9,87.9,30.9,87.9,30.9z"/>
			</defs>
			<clipPath id="SVGID_00000017496609623301713420000004611242069115815313_">
				<use xlink:href="#SVGID_1_"  style="overflow:visible;"/>
			</clipPath>
			
				<path style="clip-path:url(#SVGID_00000017496609623301713420000004611242069115815313_);fill:none;stroke:#000000;stroke-width:4;stroke-linecap:round;stroke-linejoin:round;stroke-miterlimit:10;" d="
				M6.7,90.4 M87.9,27.9C87.9,27.9,87.9,27.9,87.9,27.9C87.9,27.9,87.9,27.9,87.9,27.9c-0.1,0-0.1,0-0.1,0c-0.1,0-0.1,0-0.2,0h-17
				h-1.3h-0.9h-0.6H49.4L46.4,25l-0.1-0.1l0,0l0,0 M88,27.9c0.4,0,0.9,0.1,1.3,0.2c1.1,0.3,2.1,0.9,3.1,1.9"/>
		</g>
	</g>
	<defs>
		<filter id="Adobe_OpacityMaskFilter" filterUnits="userSpaceOnUse" x="7.6" y="8.3" width="80.4" height="60.8">
			<feColorMatrix  type="matrix" values="1 0 0 0 0  0 1 0 0 0  0 0 1 0 0  0 0 0 1 0"/>
		</filter>
	</defs>
	
		<mask maskUnits="userSpaceOnUse" x="7.6" y="8.3" width="80.4" height="60.8" id="mask0_00000145765993629341142430000000190588847700768940_">
		<path class="st1" d="M64.6,87.9c1.3,0.5,2.7,0.5,4-0.2l16.6-8c1.7-0.8,2.8-2.6,2.8-4.5v-54c0-1.9-1.1-3.7-2.8-4.5l-16.6-8
			c-1.7-0.8-3.6-0.6-5.1,0.5c-0.2,0.2-0.4,0.3-0.6,0.5L31.2,38.6L17.4,28.1c-1.3-1-3.1-0.9-4.3,0.2l-4.4,4c-1.5,1.3-1.5,3.6,0,5
			l12,10.9l-12,10.9c-1.5,1.3-1.5,3.6,0,5l4.4,4c1.2,1.1,3,1.2,4.3,0.2l13.8-10.5l31.7,28.9C63.4,87.3,64,87.6,64.6,87.9z M67.9,30
			l-24,18.2l24,18.2V30z"/>
	</mask>
	<g class="st2">
		<path class="st3" d="M88,21.2v0.2c0-0.3,0-0.5-0.1-0.8c-0.5-2.3-3.3-3.4-5.2-1.9l-12,9.1L67.9,30l0,0l-24,18.2l0,0l-6.6,5H26.1
			c-3.6,0-5.8,0-5.8,0s0,0,0,0c-0.3,0.9-1.9,5.6-4,11.3c-0.2,0.5-0.4,1-0.6,1.6c0,0.1,0,0.1-0.1,0.2c-0.3,0.9-0.6,1.7-1,2.6
			c0,0,0,0,0,0c-0.6-0.1-1.1-0.4-1.6-0.8l-4.4-4C8.3,63.8,8,63.4,7.8,63c-0.5-1.3-0.3-2.8,0.8-3.8l12-10.9h0l10.5-9.6l15.1-13.8
			L62.9,9.7c0.1-0.1,0.2-0.1,0.2-0.2c0.1-0.1,0.1-0.1,0.2-0.2c0.2-0.1,0.3-0.3,0.5-0.4c0.1-0.1,0.2-0.1,0.3-0.2
			c0.1,0,0.2-0.1,0.3-0.1c0,0,0,0,0.1,0c0.1,0,0.1-0.1,0.2-0.1c0.2,0,0.3-0.1,0.5-0.1c0.1,0,0.2-0.1,0.4-0.1c0.1,0,0.2,0,0.4,0
			c0.4,0,0.7,0,1,0c0.1,0,0.1,0,0.2,0c0.2,0,0.5,0.1,0.7,0.2c0.2,0.1,0.5,0.2,0.7,0.3l16.6,8c0.4,0.2,0.8,0.5,1.2,0.8
			c0.1,0.1,0.2,0.2,0.2,0.2C87.5,18.7,88,19.9,88,21.2z"/>
		<g>
			<path class="st4" d="M50.4,53.2H26.1l-5.5-5h0l-12-10.9c-1.1-1-1.4-2.5-0.8-3.8c0.1-0.3,0.3-0.6,0.6-0.9c0.1-0.1,0.2-0.2,0.3-0.3
				l4.4-4c1.2-1.1,3-1.2,4.3-0.2l13.8,10.5l0,0l12.7,9.6l0,0L50.4,53.2z"/>
		</g>
		<g>
			<path class="st5" d="M88,21.2v6.7h0v25.3c0,0,0,0,0,0c0,0-0.1,0-0.1,0l-3,0H67.9V11.8c0-2.4-2.7-3.7-4.6-2.5
				c0.2-0.1,0.3-0.3,0.5-0.4c0.1-0.1,0.2-0.1,0.3-0.2c0.1,0,0.2-0.1,0.3-0.1c0,0,0,0,0.1,0c0.1,0,0.1-0.1,0.2-0.1
				c0.2,0,0.3-0.1,0.5-0.1c0.1,0,0.2-0.1,0.4-0.1c0.1,0,0.2,0,0.4,0c0.4,0,0.7,0,1,0c0.1,0,0.1,0,0.2,0c0.2,0,0.5,0.1,0.7,0.2
				c0.2,0.1,0.5,0.2,0.7,0.3l16.6,8c0.4,0.2,0.8,0.5,1.2,0.8c0.1,0.1,0.2,0.2,0.2,0.2C87.5,18.7,88,19.9,88,21.2z"/>
		</g>
		<g class="st6">
			
				<linearGradient id="SVGID_00000181771263218387494730000012476084097324895400_" gradientUnits="userSpaceOnUse" x1="47.748" y1="93.7455" x2="47.748" y2="33.06" gradientTransform="matrix(1 0 0 -1 0 102)">
				<stop  offset="0" style="stop-color:#FFFFFF"/>
				<stop  offset="1" style="stop-color:#FFFFFF;stop-opacity:0"/>
			</linearGradient>
			<path style="fill-rule:evenodd;clip-rule:evenodd;fill:url(#SVGID_00000181771263218387494730000012476084097324895400_);" d="
				M87.9,20.7c-0.2-1.7-1.2-3.2-2.8-4l-16.5-8c-0.2-0.1-0.5-0.2-0.7-0.3c-0.2-0.1-0.5-0.1-0.7-0.2c0,0-0.1,0-0.2,0c-0.3,0-0.7,0-1,0
				c-0.1,0-0.3,0-0.4,0c-0.1,0-0.3,0-0.4,0.1c-0.1,0-0.3,0.1-0.5,0.1c-0.1,0-0.1,0.1-0.2,0.1c0,0,0,0-0.1,0c-0.1,0-0.2,0.1-0.3,0.1
				c-0.1,0-0.2,0.1-0.3,0.2c-0.1,0.1-0.3,0.1-0.4,0.2c-0.2,0.1-0.4,0.3-0.6,0.5L46.3,24.8L31.2,38.6L17.4,28.2
				c-1.3-1-3.1-0.9-4.3,0.2l-4.4,4h0c-0.1,0.1-0.2,0.2-0.2,0.3c-0.2,0.3-0.4,0.6-0.6,0.9c-0.5,1.3-0.3,2.8,0.8,3.8l12,10.9l-12,10.9
				c-1.1,1-1.4,2.5-0.8,3.8c0.2,0.4,0.5,0.8,0.8,1.1l4.4,4c0.5,0.4,1,0.7,1.6,0.8c0,0,0,0,0,0c0.3-0.9,0.6-1.8,1-2.6
				c0-0.1,0.1-0.1,0.1-0.2c0.2-0.5,0.4-1.1,0.6-1.6c2.1-5.7,3.8-10.4,4-11.3c0,0,0,0,0,0s2.2,0,5.8,0h24.3l-6.6-5l0,0l0,0l24-18.2
				v23.2h16.9l3,0c0,0,0.1,0,0.1,0c0,0,0,0,0,0v-32C87.9,21,87.9,20.9,87.9,20.7z"/>
			<path class="st8" d="M37.2,53.2l-6.1,4.6v0L17.4,68.3c-0.8,0.6-1.8,0.8-2.7,0.6c0.3-0.9,0.6-1.8,1-2.6c0-0.1,0.1-0.1,0.1-0.2
				c0.2-0.5,0.4-1.1,0.6-1.6c2.1-5.7,3.8-10.4,4-11.3c0,0,0,0,0,0s2.2,0,5.8,0H37.2z"/>
		</g>
	</g>
	<g>
		<defs>
			<path id="SVGID_00000033338420947976651670000011299880558692422797_" d="M4.7,20.8v71.6h91.6V20.8H4.7z M88,27.9L88,27.9l0,3
				c0,0-0.1,0-0.1,0l0,0c-0.1,0-0.2,0-0.3,0l-19.6,0V30l-1.2,0.9l-17.3,0c-0.8,0-1.6-0.3-2.1-0.9l-3.1-3.1c0,0,0,0,0-0.1l2.2-2
				l2.2-2c0.1,0.1,0.1,0.1,0.1,0.1l2,2h37c0.1,0,0.2,0,0.3,0c0,0,0,0,0,0V27.9z"/>
		</defs>
		<clipPath id="SVGID_00000096761286349990061400000005043529602185493408_">
			<use xlink:href="#SVGID_00000033338420947976651670000011299880558692422797_"  style="overflow:visible;"/>
		</clipPath>
		
			<path style="clip-path:url(#SVGID_00000096761286349990061400000005043529602185493408_);fill:none;stroke:#000000;stroke-width:4;stroke-linecap:round;stroke-linejoin:round;stroke-miterlimit:10;" d="
			M6.7,90.4 M87.9,27.9C87.9,27.9,87.9,27.9,87.9,27.9C87.9,27.9,87.9,27.9,87.9,27.9c-0.1,0-0.1,0-0.1,0c-0.1,0-0.1,0-0.2,0h-17
			h-1.3h-0.9h-0.6H49.4L46.4,25l-0.1-0.1l0,0l0,0 M88,27.9c0.4,0,0.9,0.1,1.3,0.2c1.1,0.3,2.1,0.9,3.1,1.9"/>
	</g>
	<path class="st10" d="M44.6,23.2c-0.6-0.6-1.4-1.1-2.2-1.5c-0.9-0.4-1.9-0.6-2.9-0.6H10.9c-0.7,0-1.3,0.1-1.9,0.3
		c-1,0.3-1.9,0.9-2.8,1.8c-1.4,1.4-2.1,3-2.1,4.7v58.7c0,1.7,0.7,3.3,2.1,4.7s2.9,2.1,4.7,2.1H82c1.9,0,3.4-0.4,4.6-1.2
		c1.2-0.8,2-2.2,2.5-4l8.3-34.8c0,0,0-0.1,0-0.2c-1.1,0-4.6,0-9.6,0c0,0-0.1,0-0.1,0l-3.1,0H67.9h0H50.4h0H23.9c0,0-1.6,0.6-1.7,0.6
		c-1.2,2.8-14.7,37-14.7,37"/>
</g>
</svg>
