<?xml version="1.0" encoding="utf-8"?>
<!-- Generator: Adobe Illustrator 27.3.1, SVG Export Plug-In . SVG Version: 6.00 Build 0)  -->
<svg version="1.1" id="Layer_1" xmlns="http://www.w3.org/2000/svg" xmlns:xlink="http://www.w3.org/1999/xlink" x="0px" y="0px"
	 viewBox="0 0 32 32" style="enable-background:new 0 0 32 32;" xml:space="preserve">
<style type="text/css">
	.st0{stroke:#000000;stroke-width:0.5;stroke-miterlimit:10;}
	.st1{fill:#0065A9;}
	.st2{fill:#007ACC;}
	.st3{fill:#1F9CF0;}
	.st4{opacity:0.25;}
	.st5{fill-rule:evenodd;clip-rule:evenodd;fill:url(#SVGID_1_);}
</style>
<g>
	<path class="st0" d="M12.8,6.2c0.2,0,0.4,0,0.5,0.1c0.2,0.1,0.3,0.2,0.4,0.3l1.6,1.5l0.3,0.3H16h13.1c0.3,0,0.6,0.1,0.9,0.4
		c0.4,0.3,0.4,0.6,0.4,0.8v16.8c0,0.2,0,0.4-0.4,0.8c-0.3,0.3-0.6,0.4-0.9,0.4H3c-0.4,0-0.6-0.1-0.9-0.4s-0.4-0.6-0.4-0.8v-19
		c0-0.2,0-0.5,0.4-0.8C2.3,6.3,2.6,6.2,3,6.2H12.8 M12.8,5.2H3c-0.6,0-1.2,0.2-1.6,0.7c-0.5,0.4-0.7,1-0.7,1.5v18.9
		c0,0.6,0.2,1.1,0.7,1.5s1,0.7,1.6,0.7h26.1c0.6,0,1.1-0.2,1.6-0.7c0.5-0.4,0.7-1,0.7-1.5V9.6c0-0.6-0.2-1.1-0.7-1.5
		c-0.5-0.4-1-0.7-1.6-0.7h-13l-1.6-1.5c-0.2-0.2-0.5-0.4-0.7-0.5C13.4,5.3,13.1,5.2,12.8,5.2L12.8,5.2z"/>
</g>
<g>
	<path class="st1" d="M24.6,10.7l-3.8-1.8c-0.4-0.2-1-0.1-1.3,0.2L7.1,20.4c-0.3,0.3-0.3,0.8,0,1.1l1,0.9c0.3,0.2,0.7,0.3,1,0
		L24,11.2c0.5-0.4,1.2,0,1.2,0.6l0,0C25.3,11.3,25,10.9,24.6,10.7z"/>
	<g>
		<path class="st2" d="M24.6,25.1L20.8,27c-0.4,0.2-1,0.1-1.3-0.2L7.1,15.4c-0.3-0.3-0.3-0.8,0-1.1l1-0.9c0.3-0.2,0.7-0.3,1,0
			L24,24.7c0.5,0.4,1.2,0,1.2-0.6l0,0C25.3,24.5,25,24.9,24.6,25.1z"/>
	</g>
	<g>
		<path class="st3" d="M20.8,27c-0.4,0.2-1,0.1-1.3-0.2c0.4,0.4,1.2,0.1,1.2-0.5V9.6c0-0.6-0.7-0.9-1.2-0.5c0.3-0.3,0.9-0.4,1.3-0.2
			l3.8,1.8c0.4,0.2,0.7,0.6,0.7,1v12.4c0,0.4-0.3,0.8-0.7,1L20.8,27z"/>
	</g>
	<g class="st4">
		
			<linearGradient id="SVGID_1_" gradientUnits="userSpaceOnUse" x1="16.0375" y1="486.7606" x2="16.0375" y2="505.075" gradientTransform="matrix(1 0 0 1 0 -478)">
			<stop  offset="0" style="stop-color:#FFFFFF"/>
			<stop  offset="1" style="stop-color:#FFFFFF;stop-opacity:0"/>
		</linearGradient>
		<path class="st5" d="M19.9,27c0.3,0.1,0.6,0.1,0.9,0l3.8-1.8c0.4-0.2,0.7-0.6,0.7-1V11.7c0-0.4-0.3-0.8-0.7-1l-3.8-1.8
			C20.4,8.7,20,8.7,19.6,9l-0.1,0.1l-7.3,6.6L9,13.3c-0.3-0.2-0.7-0.2-1,0l-1,0.9c-0.3,0.3-0.3,0.8,0,1.1l2.7,2.5L7,20.3
			c-0.3,0.3-0.3,0.8,0,1.1l1,0.9c0.3,0.2,0.7,0.3,1,0l3.2-2.4l7.3,6.6C19.6,26.9,19.7,26.9,19.9,27z M20.6,13.7l-5.5,4.2l5.5,4.2
			V13.7z"/>
	</g>
</g>
</svg>
